<svg xmlns="http://www.w3.org/2000/svg" xmlns:xlink="http://www.w3.org/1999/xlink" viewBox="0 0 122.07 77.38"><defs><style>.cls-1,.cls-10,.cls-11,.cls-12,.cls-13,.cls-14,.cls-15,.cls-16,.cls-2,.cls-3,.cls-4,.cls-5,.cls-55,.cls-58,.cls-59,.cls-6,.cls-66,.cls-67,.cls-68,.cls-69,.cls-7,.cls-8,.cls-9{isolation:isolate;}.cls-2,.cls-55{fill:#76ab37;}.cls-3{fill:#3d9443;}.cls-10,.cls-12,.cls-13,.cls-14,.cls-16,.cls-4,.cls-5,.cls-55,.cls-58,.cls-59,.cls-6,.cls-66,.cls-67,.cls-68,.cls-69,.cls-8{mix-blend-mode:multiply;}.cls-4{fill:url(#linear-gradient);}.cls-5{fill:url(#linear-gradient-2);}.cls-6{fill:url(#linear-gradient-3);}.cls-7{fill:url(#linear-gradient-4);}.cls-8{fill:url(#linear-gradient-5);}.cls-9{fill:url(#linear-gradient-6);}.cls-10{fill:url(#linear-gradient-7);}.cls-11{fill:url(#linear-gradient-8);}.cls-12{fill:url(#linear-gradient-9);}.cls-13{fill:url(#linear-gradient-10);}.cls-14{fill:url(#linear-gradient-11);}.cls-15{fill:url(#linear-gradient-12);}.cls-16{fill:url(#linear-gradient-13);}.cls-17{fill:url(#radial-gradient);}.cls-18{fill:url(#radial-gradient-5);}.cls-19{fill:url(#radial-gradient-6);}.cls-20{fill:url(#radial-gradient-10);}.cls-21{fill:url(#radial-gradient-11);}.cls-22{fill:url(#radial-gradient-15);}.cls-23{fill:url(#radial-gradient-16);}.cls-24{fill:url(#radial-gradient-20);}.cls-25{fill:url(#radial-gradient-21);}.cls-26{fill:url(#radial-gradient-25);}.cls-27{fill:url(#radial-gradient-26);}.cls-28{fill:url(#radial-gradient-30);}.cls-29{fill:url(#radial-gradient-31);}.cls-30{fill:url(#radial-gradient-35);}.cls-31{fill:url(#radial-gradient-36);}.cls-32{fill:url(#radial-gradient-40);}.cls-33{fill:url(#radial-gradient-41);}.cls-34{fill:url(#radial-gradient-45);}.Graphic-Style-2{fill:url(#linear-gradient-14);}.cls-35{fill:url(#radial-gradient-46);}.cls-36{fill:url(#radial-gradient-50);}.cls-37{fill:url(#radial-gradient-51);}.cls-38{fill:url(#radial-gradient-55);}.cls-39{fill:url(#radial-gradient-56);}.cls-40{fill:url(#radial-gradient-60);}.cls-41{fill:url(#radial-gradient-61);}.cls-42{fill:url(#radial-gradient-65);}.cls-43{fill:url(#radial-gradient-66);}.cls-44{fill:url(#radial-gradient-70);}.cls-45{fill:url(#radial-gradient-71);}.cls-46{fill:url(#radial-gradient-75);}.cls-47{fill:url(#radial-gradient-76);}.cls-48{fill:url(#radial-gradient-80);}.cls-49{fill:url(#radial-gradient-81);}.cls-50{fill:url(#radial-gradient-85);}.cls-51{fill:url(#radial-gradient-86);}.cls-52{fill:url(#radial-gradient-90);}.cls-53{fill:url(#radial-gradient-91);}.cls-54{fill:url(#radial-gradient-95);}.cls-56{fill:url(#radial-gradient-96);}.cls-57{fill:url(#radial-gradient-100);}.cls-58{fill:url(#linear-gradient-15);}.cls-59{fill:url(#linear-gradient-16);}.cls-60{fill:url(#radial-gradient-101);}.cls-61{fill:url(#radial-gradient-105);}.cls-62{fill:url(#radial-gradient-106);}.cls-63{fill:url(#radial-gradient-110);}.cls-64{fill:url(#radial-gradient-111);}.cls-65{fill:url(#radial-gradient-115);}.cls-66{fill:url(#linear-gradient-17);}.cls-67{fill:url(#linear-gradient-18);}.cls-68{fill:url(#linear-gradient-19);}.cls-69{fill:url(#linear-gradient-20);}</style><linearGradient id="linear-gradient" x1="70.96" y1="36.66" x2="65.68" y2="36.26" gradientUnits="userSpaceOnUse"><stop offset="0" stop-color="#76ab37"/><stop offset="1" stop-color="#3d9443"/></linearGradient><linearGradient id="linear-gradient-2" x1="65.33" y1="48.78" x2="64.14" y2="45.54" xlink:href="#linear-gradient"/><linearGradient id="linear-gradient-3" x1="59.82" y1="48.7" x2="64.36" y2="48.7" xlink:href="#linear-gradient"/><linearGradient id="linear-gradient-4" x1="45.93" y1="33.34" x2="54.46" y2="33.34" xlink:href="#linear-gradient"/><linearGradient id="linear-gradient-5" x1="49.88" y1="34.8" x2="47.55" y2="37.24" xlink:href="#linear-gradient"/><linearGradient id="linear-gradient-6" x1="45.57" y1="19.88" x2="45.59" y2="24.81" xlink:href="#linear-gradient"/><linearGradient id="linear-gradient-7" x1="27.62" y1="22.4" x2="34.02" y2="22.4" xlink:href="#linear-gradient"/><linearGradient id="linear-gradient-8" x1="25.68" y1="30.54" x2="21.16" y2="35.55" xlink:href="#linear-gradient"/><linearGradient id="linear-gradient-9" x1="26.34" y1="28.25" x2="21.99" y2="30.73" xlink:href="#linear-gradient"/><linearGradient id="linear-gradient-10" x1="16.89" y1="28.24" x2="21.28" y2="34.69" xlink:href="#linear-gradient"/><linearGradient id="linear-gradient-11" x1="39.12" y1="50.28" x2="39.25" y2="46.88" xlink:href="#linear-gradient"/><linearGradient id="linear-gradient-12" x1="27.42" y1="43.1" x2="30.65" y2="46.14" xlink:href="#linear-gradient"/><linearGradient id="linear-gradient-13" x1="24.71" y1="48.63" x2="29.57" y2="48.63" xlink:href="#linear-gradient"/><radialGradient id="radial-gradient" cx="54.68" cy="23.18" r="2.19" gradientUnits="userSpaceOnUse"><stop offset="0" stop-color="#f7a420"/><stop offset="0.79" stop-color="#f77616"/><stop offset="1" stop-color="#f75f16"/></radialGradient><radialGradient id="radial-gradient-5" cx="54.76" cy="23.63" r="2.58" gradientUnits="userSpaceOnUse"><stop offset="0" stop-color="#f7a420"/><stop offset="0.64" stop-color="#f77616"/><stop offset="0.84" stop-color="#f75f16"/><stop offset="0.96" stop-color="#dc5413"/><stop offset="1" stop-color="#d15012"/></radialGradient><radialGradient id="radial-gradient-6" cx="45.95" cy="39.47" r="2.19" xlink:href="#radial-gradient"/><radialGradient id="radial-gradient-10" cx="46.03" cy="39.92" r="2.58" xlink:href="#radial-gradient-5"/><radialGradient id="radial-gradient-11" cx="48.14" cy="38.06" r="2.19" xlink:href="#radial-gradient"/><radialGradient id="radial-gradient-15" cx="48.21" cy="38.51" r="2.58" xlink:href="#radial-gradient-5"/><radialGradient id="radial-gradient-16" cx="52.95" cy="38.14" r="2.19" gradientTransform="translate(-10.56 -8.38) scale(0.97 0.97)" xlink:href="#radial-gradient"/><radialGradient id="radial-gradient-20" cx="53.02" cy="38.59" r="2.58" gradientTransform="translate(-10.56 -8.38) scale(0.97 0.97)" xlink:href="#radial-gradient-5"/><radialGradient id="radial-gradient-21" cx="47.03" cy="25.77" r="2.4" gradientTransform="translate(-9.82 -7.85) scale(0.96 0.96)" xlink:href="#radial-gradient"/><radialGradient id="radial-gradient-25" cx="47.11" cy="26.27" r="2.83" gradientTransform="translate(-9.82 -7.85) scale(0.96 0.96)" xlink:href="#radial-gradient-5"/><radialGradient id="radial-gradient-26" cx="26.79" cy="39.37" r="2.4" gradientTransform="translate(-9.82 -7.85) scale(0.96 0.96)" xlink:href="#radial-gradient"/><radialGradient id="radial-gradient-30" cx="26.88" cy="39.87" r="2.83" gradientTransform="translate(-9.82 -7.85) scale(0.96 0.96)" xlink:href="#radial-gradient-5"/><radialGradient id="radial-gradient-31" cx="35.51" cy="22.13" r="2.01" gradientTransform="translate(-10.56 -8.38) scale(0.97 0.97)" xlink:href="#radial-gradient"/><radialGradient id="radial-gradient-35" cx="35.58" cy="22.54" r="2.38" gradientTransform="translate(-10.56 -8.38) scale(0.97 0.97)" xlink:href="#radial-gradient-5"/><radialGradient id="radial-gradient-36" cx="31.9" cy="48.8" r="2.01" gradientTransform="translate(-10.56 -8.38) scale(0.97 0.97)" xlink:href="#radial-gradient"/><radialGradient id="radial-gradient-40" cx="31.97" cy="49.22" r="2.38" gradientTransform="translate(-10.56 -8.38) scale(0.97 0.97)" xlink:href="#radial-gradient-5"/><radialGradient id="radial-gradient-41" cx="131.37" cy="57.22" r="3.93" gradientTransform="translate(-9.82 -7.85) scale(0.96 0.96)" xlink:href="#radial-gradient"/><radialGradient id="radial-gradient-45" cx="131.5" cy="58.03" r="4.64" gradientTransform="translate(-9.82 -7.85) scale(0.96 0.96)" xlink:href="#radial-gradient-5"/><linearGradient id="linear-gradient-14" x1="47.63" y1="10.49" x2="47.63" y2="80.71" gradientUnits="userSpaceOnUse"><stop offset="0" stop-color="#583b0f"/><stop offset="0.54" stop-color="#3d2308"/><stop offset="1" stop-color="#170000"/></linearGradient><radialGradient id="radial-gradient-46" cx="60.95" cy="37.28" r="2.19" xlink:href="#radial-gradient"/><radialGradient id="radial-gradient-50" cx="61.03" cy="37.73" r="2.58" xlink:href="#radial-gradient-5"/><radialGradient id="radial-gradient-51" cx="62.79" cy="32.91" r="2.19" xlink:href="#radial-gradient"/><radialGradient id="radial-gradient-55" cx="62.87" cy="33.36" r="2.58" xlink:href="#radial-gradient-5"/><radialGradient id="radial-gradient-56" cx="59.15" cy="21.51" r="2.42" xlink:href="#radial-gradient"/><radialGradient id="radial-gradient-60" cx="59.23" cy="22.01" r="2.85" xlink:href="#radial-gradient-5"/><radialGradient id="radial-gradient-61" cx="41.7" cy="36.22" r="2.4" gradientTransform="translate(-9.82 -7.85) scale(0.96 0.96)" xlink:href="#radial-gradient"/><radialGradient id="radial-gradient-65" cx="41.79" cy="36.71" r="2.83" gradientTransform="translate(-9.82 -7.85) scale(0.96 0.96)" xlink:href="#radial-gradient-5"/><radialGradient id="radial-gradient-66" cx="32.89" cy="44.46" r="2.4" gradientTransform="translate(-9.82 -7.85) scale(0.96 0.96)" xlink:href="#radial-gradient"/><radialGradient id="radial-gradient-70" cx="32.97" cy="44.95" r="2.83" gradientTransform="translate(-9.82 -7.85) scale(0.96 0.96)" xlink:href="#radial-gradient-5"/><radialGradient id="radial-gradient-71" cx="19.81" cy="33.82" r="2.4" gradientTransform="translate(-9.82 -7.85) scale(0.96 0.96)" xlink:href="#radial-gradient"/><radialGradient id="radial-gradient-75" cx="19.9" cy="34.31" r="2.83" gradientTransform="translate(-9.82 -7.85) scale(0.96 0.96)" xlink:href="#radial-gradient-5"/><radialGradient id="radial-gradient-76" cx="37.18" cy="28.46" r="2.27" gradientTransform="translate(-9.82 -7.85) scale(0.96 0.96)" xlink:href="#radial-gradient"/><radialGradient id="radial-gradient-80" cx="37.26" cy="28.93" r="2.68" gradientTransform="translate(-9.82 -7.85) scale(0.96 0.96)" xlink:href="#radial-gradient-5"/><radialGradient id="radial-gradient-81" cx="29.66" cy="32.06" r="2.01" gradientTransform="translate(-10.56 -8.38) scale(0.97 0.97)" xlink:href="#radial-gradient"/><radialGradient id="radial-gradient-85" cx="29.72" cy="32.47" r="2.38" gradientTransform="translate(-10.56 -8.38) scale(0.97 0.97)" xlink:href="#radial-gradient-5"/><radialGradient id="radial-gradient-86" cx="36.04" cy="38.3" r="2.4" gradientTransform="translate(-9.82 -7.85) scale(0.96 0.96)" xlink:href="#radial-gradient"/><radialGradient id="radial-gradient-90" cx="36.12" cy="38.79" r="2.83" gradientTransform="translate(-9.82 -7.85) scale(0.96 0.96)" xlink:href="#radial-gradient-5"/><radialGradient id="radial-gradient-91" cx="64.3" cy="37.71" r="2.82" gradientTransform="translate(-9.82 -7.85) scale(0.96 0.96)" xlink:href="#radial-gradient"/><radialGradient id="radial-gradient-95" cx="64.4" cy="38.3" r="3.33" gradientTransform="translate(-9.82 -7.85) scale(0.96 0.96)" xlink:href="#radial-gradient-5"/><radialGradient id="radial-gradient-96" cx="40.81" cy="18.87" r="2.01" gradientTransform="translate(-10.56 -8.38) scale(0.97 0.97)" xlink:href="#radial-gradient"/><radialGradient id="radial-gradient-100" cx="40.88" cy="19.28" r="2.38" gradientTransform="translate(-10.56 -8.38) scale(0.97 0.97)" xlink:href="#radial-gradient-5"/><linearGradient id="linear-gradient-15" x1="52.75" y1="16.01" x2="52.84" y2="21.87" xlink:href="#linear-gradient"/><linearGradient id="linear-gradient-16" x1="29.64" y1="26.99" x2="35.17" y2="26.99" xlink:href="#linear-gradient"/><radialGradient id="radial-gradient-101" cx="21.14" cy="41.77" r="2.4" gradientTransform="translate(-9.82 -7.85) scale(0.96 0.96)" xlink:href="#radial-gradient"/><radialGradient id="radial-gradient-105" cx="21.23" cy="42.27" r="2.83" gradientTransform="translate(-9.82 -7.85) scale(0.96 0.96)" xlink:href="#radial-gradient-5"/><radialGradient id="radial-gradient-106" cx="53.79" cy="21.62" r="2.5" gradientTransform="translate(-9.82 -7.85) scale(0.96 0.96)" xlink:href="#radial-gradient"/><radialGradient id="radial-gradient-110" cx="53.87" cy="22.14" r="2.96" gradientTransform="translate(-9.82 -7.85) scale(0.96 0.96)" xlink:href="#radial-gradient-5"/><radialGradient id="radial-gradient-111" cx="54.53" cy="25.8" r="2.4" gradientTransform="translate(-9.82 -7.85) scale(0.96 0.96)" xlink:href="#radial-gradient"/><radialGradient id="radial-gradient-115" cx="54.61" cy="26.3" r="2.83" gradientTransform="translate(-9.82 -7.85) scale(0.96 0.96)" xlink:href="#radial-gradient-5"/><linearGradient id="linear-gradient-17" x1="57.96" y1="27.76" x2="61.55" y2="27.76" xlink:href="#linear-gradient"/><linearGradient id="linear-gradient-18" x1="66.34" y1="49.46" x2="71.1" y2="49.46" xlink:href="#linear-gradient"/><linearGradient id="linear-gradient-19" x1="70.75" y1="28.21" x2="76.15" y2="28.21" xlink:href="#linear-gradient"/><linearGradient id="linear-gradient-20" x1="75.92" y1="39.73" x2="82.66" y2="39.73" xlink:href="#linear-gradient"/></defs><title>Alani_Logo</title><g class="cls-1"><g id="Layer_1" data-name="Layer 1"><path class="cls-2" d="M56.23,12S53,13.35,52.33,16.3a2.87,2.87,0,0,0,1.9,3.44l.29-1.1a8.18,8.18,0,0,0-.61-1.91,5.7,5.7,0,0,1,.68,1.7l.57-1.91h0c-.1-.44-.21-.87-.35-1.3a10.33,10.33,0,0,1,.41,1.11l.62-2.08-.52,2.08.87-.78-.92,1h0l-.48,1.94a3.25,3.25,0,0,1,1.42-.86,4.4,4.4,0,0,0-1.48,1.1l-.26,1.09a2.87,2.87,0,0,0,3.34-2.22A6.74,6.74,0,0,0,56.23,12Z" transform="translate(-11.97 -9.31)"/><path d="M79.28,79.48H74.12l-1.49-4.67H65.15l-1.48,4.67H58.55l7.65-21H71.8Zm-7.73-8.31-2.26-7.06a9.2,9.2,0,0,1-.35-1.89h-.12a8,8,0,0,1-.37,1.83l-2.29,7.12Z" transform="translate(-11.97 -9.31)"/><path d="M85.93,74.4a2.05,2.05,0,0,0,.45,1.44,1.57,1.57,0,0,0,1.22.49,4,4,0,0,0,.76-.07l.76-.15v3.25a16.83,16.83,0,0,1-1.77.36,13.24,13.24,0,0,1-1.94.14,4.41,4.41,0,0,1-1.68-.31,3.55,3.55,0,0,1-1.29-.89,4,4,0,0,1-.83-1.4,5.46,5.46,0,0,1-.29-1.85V57.28h4.6Z" transform="translate(-11.97 -9.31)"/><path d="M104.8,79.48h-4.38V77.33h-.06a4.89,4.89,0,0,1-4.47,2.52,4.67,4.67,0,0,1-3.44-1.24,4.43,4.43,0,0,1-1.25-3.3q0-4.37,5.17-5l4.07-.54q0-2.46-2.67-2.46a9.1,9.1,0,0,0-5.1,1.6V65.38a11.46,11.46,0,0,1,2.64-.88,13.9,13.9,0,0,1,3.05-.38q6.42,0,6.42,6.4Zm-4.35-6.09v-1l-2.72.35q-2.26.29-2.26,2a1.68,1.68,0,0,0,.55,1.3,2.11,2.11,0,0,0,1.49.51,2.74,2.74,0,0,0,2.12-.9A3.25,3.25,0,0,0,100.45,73.39Z" transform="translate(-11.97 -9.31)"/><path d="M122.7,79.48h-4.61V71.15q0-3.49-2.49-3.49a2.47,2.47,0,0,0-2,.92,3.52,3.52,0,0,0-.78,2.34v8.55h-4.63v-15h4.63v2.37h.06a5.3,5.3,0,0,1,4.82-2.74q5,0,5,6.18Z" transform="translate(-11.97 -9.31)"/><path d="M130.84,74.4a2.05,2.05,0,0,0,.45,1.44,1.57,1.57,0,0,0,1.22.49,4,4,0,0,0,.76-.07l.76-.15v3.25a16.83,16.83,0,0,1-1.77.36,13.24,13.24,0,0,1-1.94.14,4.41,4.41,0,0,1-1.68-.31,3.55,3.55,0,0,1-1.29-.89,4,4,0,0,1-.83-1.4,5.46,5.46,0,0,1-.29-1.85V64.48h4.6Z" transform="translate(-11.97 -9.31)"/><path class="cls-3" d="M71.43,17.1s-2.71,2-2.71,4.92a2.77,2.77,0,0,0,2.55,2.81l0-1.09a7.89,7.89,0,0,0-1-1.66,5.5,5.5,0,0,1,1,1.45l.11-1.92h0c-.19-.39-.39-.77-.62-1.15a10,10,0,0,1,.63.95l.12-2.09,0,2.07.64-.93-.64,1.14h0l0,1.93a3.13,3.13,0,0,1,1.15-1.13,4.24,4.24,0,0,0-1.15,1.36v1.08A2.77,2.77,0,0,0,74.14,22,6.5,6.5,0,0,0,71.43,17.1Z" transform="translate(-11.97 -9.31)"/><path class="cls-2" d="M80.26,29.54a5.27,5.27,0,0,0-4.2-.8,2.11,2.11,0,0,0-1.43,2.5l.8-.23a6,6,0,0,0,1-1.11A4.18,4.18,0,0,1,75.58,31L77,30.59h0c.24-.23.47-.46.68-.72a7.57,7.57,0,0,1-.54.68l1.54-.41-1.5.47.82.25-1-.2h0l-1.4.44a2.38,2.38,0,0,1,1.08.56,3.23,3.23,0,0,0-1.25-.51l-.78.25a2.11,2.11,0,0,0,2.66,1.25A5,5,0,0,0,80.26,29.54Z" transform="translate(-11.97 -9.31)"/><path class="cls-3" d="M75.19,33.33a6.33,6.33,0,0,0-2.8,4.24,2.49,2.49,0,0,0,2,2.75l.12-1a7.22,7.22,0,0,0-.74-1.59,5,5,0,0,1,.77,1.39l.26-1.73h0c-.13-.37-.28-.73-.45-1.09a9.08,9.08,0,0,1,.48.91l.28-1.88-.2,1.87.65-.79-.66,1h0l-.18,1.75a2.81,2.81,0,0,1,1.1-.93,3.84,3.84,0,0,0-1.13,1.14l-.1,1A2.49,2.49,0,0,0,77.16,38,5.94,5.94,0,0,0,75.19,33.33Z" transform="translate(-11.97 -9.31)"/><path class="cls-4" d="M73.45,36.06A4.93,4.93,0,0,0,69.83,35a1.83,1.83,0,0,0-1.67,1.83l.75-.1a5.66,5.66,0,0,0,1-.78,3.85,3.85,0,0,1-.89.76l1.32-.15h0c.25-.16.49-.32.72-.49a7,7,0,0,1-.59.48L72,36.38l-1.41.22.69.28-.84-.25h0l-1.32.2a2,2,0,0,1,.88.56,2.87,2.87,0,0,0-1-.53l-.74.12a1.82,1.82,0,0,0,2.18,1.26A4.62,4.62,0,0,0,73.45,36.06Z" transform="translate(-11.97 -9.31)"/><path class="cls-2" d="M81.29,31.57s-3.36.28-4.89,2.77a2.77,2.77,0,0,0,.69,3.73l.6-.91a7.89,7.89,0,0,0,0-1.94,5.5,5.5,0,0,1,.1,1.76l1.1-1.57h0c0-.43.07-.86.08-1.3a10,10,0,0,1,0,1.14l1.2-1.71-1.11,1.75,1-.45L79,35.45h0l-1,1.63a3.13,3.13,0,0,1,1.57-.36,4.24,4.24,0,0,0-1.69.55l-.57.91a2.77,2.77,0,0,0,3.73-1A6.5,6.5,0,0,0,81.29,31.57Z" transform="translate(-11.97 -9.31)"/><path class="cls-2" d="M83,39.37s-2.53-2-5.21-1.19a2.63,2.63,0,0,0-1.9,3.06l1-.26a7.5,7.5,0,0,0,1.26-1.35,5.23,5.23,0,0,1-1.06,1.3l1.78-.4h0c.3-.27.6-.56.89-.86a9.46,9.46,0,0,1-.7.83L81,40.06l-1.89.52,1,.35-1.21-.29h0l-1.77.48a3,3,0,0,1,1.33.75A4,4,0,0,0,77,41.18l-1,.28a2.63,2.63,0,0,0,3.27,1.68A6.18,6.18,0,0,0,83,39.37Z" transform="translate(-11.97 -9.31)"/><path class="cls-2" d="M71.43,47.42a4.28,4.28,0,0,0-1.9-2.9,1.71,1.71,0,0,0-2.27.58l.59.33A4.87,4.87,0,0,0,69,45.36,3.39,3.39,0,0,1,68,45.5l1,.61h0c.27,0,.53,0,.8,0a6.14,6.14,0,0,1-.7.07l1.1.67-1.12-.61.32.62-.44-.68h0l-1-.57a1.93,1.93,0,0,1,.28.95,2.62,2.62,0,0,0-.41-1l-.59-.32A1.71,1.71,0,0,0,68,47.47,4,4,0,0,0,71.43,47.42Z" transform="translate(-11.97 -9.31)"/><path class="cls-3" d="M81.75,46.1a6.33,6.33,0,0,0-4.35-2.61,2.49,2.49,0,0,0-2.66,2.12l1,.08a7.22,7.22,0,0,0,1.55-.81,5,5,0,0,1-1.36.83l1.74.18h0c.36-.15.72-.31,1.07-.49a9.08,9.08,0,0,1-.89.52l1.89.2L77.86,46l.81.61-1-.62h0l-1.75-.11a2.81,2.81,0,0,1,1,1.06,3.84,3.84,0,0,0-1.19-1.07l-1-.05a2.49,2.49,0,0,0,2.45,2.46A5.94,5.94,0,0,0,81.75,46.1Z" transform="translate(-11.97 -9.31)"/><path class="cls-2" d="M79.55,52.74a6.33,6.33,0,0,0-1.24-4.92,2.49,2.49,0,0,0-3.39-.38l.65.76a7.22,7.22,0,0,0,1.67.52,5,5,0,0,1-1.55-.37l1.1,1.36h0c.36.15.73.29,1.1.4a9.08,9.08,0,0,1-1-.26l1.2,1.48-1.25-1.41.15,1-.28-1.15h0l-1.16-1.31a2.81,2.81,0,0,1-.06,1.44,3.84,3.84,0,0,0-.08-1.6l-.65-.73a2.49,2.49,0,0,0,0,3.47A5.94,5.94,0,0,0,79.55,52.74Z" transform="translate(-11.97 -9.31)"/><path class="cls-3" d="M72.85,53.11a6.78,6.78,0,0,0,2.27-4.61,2.49,2.49,0,0,0-2-2.69l0,1a7.8,7.8,0,0,0,.78,1.58A5.28,5.28,0,0,1,73.06,47l-.12,1.81h0c.15.37.3.74.48,1.09a9.66,9.66,0,0,1-.5-.91l-.13,2,.05-2-.53.87.54-1.07h0L72.9,47a2.77,2.77,0,0,1-.94,1,3.92,3.92,0,0,0,.95-1.27l0-1a2.47,2.47,0,0,0-2.18,2.62A6.35,6.35,0,0,0,72.85,53.11Z" transform="translate(-11.97 -9.31)"/><path class="cls-2" d="M69.29,55.85a5.37,5.37,0,0,0,2-3.85,2.15,2.15,0,0,0-2-2.14v.85A6.12,6.12,0,0,0,70.1,52a4.26,4.26,0,0,1-.8-1.11l-.06,1.49h0c.15.3.31.59.49.88a7.72,7.72,0,0,1-.5-.73l-.06,1.62v-1.6l-.49.73.48-.89h0v-1.5a2.43,2.43,0,0,1-.87.89,3.29,3.29,0,0,0,.87-1.07v-.84a2.15,2.15,0,0,0-2,2.22A5,5,0,0,0,69.29,55.85Z" transform="translate(-11.97 -9.31)"/><path class="cls-2" d="M64.83,53.82A4.55,4.55,0,0,0,68,51.91a1.83,1.83,0,0,0-.55-2.45l-.38.61a5.17,5.17,0,0,0,0,1.28A3.62,3.62,0,0,1,67,50.19l-.69,1.06h0c0,.28,0,.57,0,.86a6.54,6.54,0,0,1-.06-.75l-.75,1.15.69-1.17-.68.31.75-.44h0l.65-1.09a2.07,2.07,0,0,1-1,.26A2.8,2.8,0,0,0,67,50l.36-.61a1.83,1.83,0,0,0-2.45.73A4.27,4.27,0,0,0,64.83,53.82Z" transform="translate(-11.97 -9.31)"/><path class="cls-2" d="M63.81,37.73a4.75,4.75,0,0,0-3.25,1.88,1.83,1.83,0,0,0,.33,2.48l.42-.61a5.43,5.43,0,0,0,.07-1.29,3.74,3.74,0,0,1,0,1.17l.76-1.06h0c0-.29.08-.57.09-.86a6.8,6.8,0,0,1,0,.76L63.07,39l-.77,1.17L63,39.9l-.76.43h0l-.72,1.09a2.06,2.06,0,0,1,1-.25,2.84,2.84,0,0,0-1.11.38l-.4.61a1.83,1.83,0,0,0,2.44-.7A4.46,4.46,0,0,0,63.81,37.73Z" transform="translate(-11.97 -9.31)"/><path class="cls-5" d="M64.8,49.7a4.75,4.75,0,0,0,1.39-3.49,1.83,1.83,0,0,0-1.79-1.74l.05.74a5.43,5.43,0,0,0,.74,1.06,3.74,3.74,0,0,1-.73-.91l.06,1.3h0c.14.25.3.5.46.74a6.8,6.8,0,0,1-.46-.6l.06,1.42-.12-1.4-.35.66.33-.81h0l-.11-1.3a2.06,2.06,0,0,1-.65.83,2.84,2.84,0,0,0,.64-1l-.07-.73a1.83,1.83,0,0,0-1.49,2.06A4.46,4.46,0,0,0,64.8,49.7Z" transform="translate(-11.97 -9.31)"/><path class="cls-6" d="M64.36,49.91a4.38,4.38,0,0,0-2.15-2.71,1.69,1.69,0,0,0-2.22.63l.61.3a5,5,0,0,0,1.19-.1,3.45,3.45,0,0,1-1.07.16l1.06.55h0c.27,0,.53,0,.8,0a6.27,6.27,0,0,1-.69.09l1.16.6-1.17-.55.37.58-.49-.64h0l-1.09-.51a1.89,1.89,0,0,1,.36.9,2.62,2.62,0,0,0-.5-1l-.61-.28a1.69,1.69,0,0,0,1,2.14A4.11,4.11,0,0,0,64.36,49.91Z" transform="translate(-11.97 -9.31)"/><path class="cls-3" d="M57.78,53.86a5,5,0,0,0,.29-3.94,1.93,1.93,0,0,0-2.33-1.2l.28.73a5.75,5.75,0,0,0,1.07.84,4,4,0,0,1-1-.69l.46,1.29h0c.22.21.45.41.69.6a7.19,7.19,0,0,1-.65-.46l.51,1.41-.56-1.37-.14.78.07-.92h0L56,49.64a2.16,2.16,0,0,1-.39,1,3,3,0,0,0,.32-1.19l-.29-.71a1.92,1.92,0,0,0-.83,2.53A4.71,4.71,0,0,0,57.78,53.86Z" transform="translate(-11.97 -9.31)"/><path class="cls-2" d="M61.35,21.45a6.14,6.14,0,0,0-2.24,4.32,2.38,2.38,0,0,0,2.11,2.46l0-1a7,7,0,0,0-.83-1.46,4.84,4.84,0,0,1,.84,1.27l.09-1.68h0c-.16-.34-.32-.68-.51-1a8.79,8.79,0,0,1,.53.83l.1-1.83,0,1.81.53-.81-.53,1h0l0,1.69a2.67,2.67,0,0,1,.95-1,3.68,3.68,0,0,0-1,1.19v.95a2.37,2.37,0,0,0,2.19-2.47A5.76,5.76,0,0,0,61.35,21.45Z" transform="translate(-11.97 -9.31)"/><path class="cls-2" d="M61.44,19.18s-2.81-1.59-5.37-.45a2.66,2.66,0,0,0-1.47,3.33l1-.4a7.57,7.57,0,0,0,1.07-1.52,5.28,5.28,0,0,1-.87,1.45l1.72-.65h0c.27-.32.53-.64.76-1a9.55,9.55,0,0,1-.58.93l1.88-.71-1.82.79,1.06.2L57.54,21h0l-1.7.73a3,3,0,0,1,1.43.56,4.07,4.07,0,0,0-1.64-.48l-.95.41a2.66,2.66,0,0,0,3.5,1.22A6.24,6.24,0,0,0,61.44,19.18Z" transform="translate(-11.97 -9.31)"/><path class="cls-3" d="M50.2,24.81a4.45,4.45,0,0,0,.21,3.66,1.82,1.82,0,0,0,2.43.58l-.37-.6a5.05,5.05,0,0,0-1.15-.53,3.55,3.55,0,0,1,1.08.41l-.61-1.08h0c-.24-.14-.49-.27-.75-.39a6.41,6.41,0,0,1,.69.28L51,26l.71,1.13,0-.74,0,.85h0l.67,1.05a2.07,2.07,0,0,1,.25-1,2.77,2.77,0,0,0-.17,1.16L53,29a1.82,1.82,0,0,0,.5-2.5A4.18,4.18,0,0,0,50.2,24.81Z" transform="translate(-11.97 -9.31)"/><path class="cls-2" d="M58.46,28.07a4.39,4.39,0,0,0-2.64,2.28,1.71,1.71,0,0,0,.76,2.2l.27-.63a5,5,0,0,0-.17-1.19,3.46,3.46,0,0,1,.22,1.07l.5-1.1h0c0-.27,0-.54-.08-.8a6.29,6.29,0,0,1,.13.69L58,29.39l-.49,1.2.57-.4-.62.53h0L57,31.84a1.91,1.91,0,0,1,.89-.41A2.64,2.64,0,0,0,57,32l-.25.63a1.7,1.7,0,0,0,2.11-1.07A4.12,4.12,0,0,0,58.46,28.07Z" transform="translate(-11.97 -9.31)"/><path class="cls-3" d="M57.45,35.62a5.19,5.19,0,0,0-3.63,2.13,2.08,2.08,0,0,0,.56,2.79l.44-.69a5.91,5.91,0,0,0,0-1.45,4.12,4.12,0,0,1,.1,1.32l.81-1.19h0c0-.32,0-.65,0-1a7.46,7.46,0,0,1,0,.85l.88-1.3-.81,1.32.77-.35-.85.49h0L55,39.79a2.35,2.35,0,0,1,1.17-.29,3.18,3.18,0,0,0-1.26.44l-.42.69a2.07,2.07,0,0,0,2.78-.8A4.87,4.87,0,0,0,57.45,35.62Z" transform="translate(-11.97 -9.31)"/><path class="cls-7" d="M50.09,30.76a5.22,5.22,0,0,0-3.78,1.91,2.09,2.09,0,0,0,.39,2.83l.49-.67a6,6,0,0,0,.08-1.46,4.15,4.15,0,0,1,0,1.33l.88-1.15h0c0-.32.09-.65.1-1a7.51,7.51,0,0,1,0,.86l1-1.25-.89,1.28.79-.3-.89.44h0l-.83,1.19a2.36,2.36,0,0,1,1.19-.21,3.2,3.2,0,0,0-1.29.36l-.46.67A2.09,2.09,0,0,0,49.68,35,4.9,4.9,0,0,0,50.09,30.76Z" transform="translate(-11.97 -9.31)"/><path class="cls-8" d="M51.5,33.95a5.32,5.32,0,0,0-3.69.91A1.84,1.84,0,0,0,47,37.16l.64-.45a6.16,6.16,0,0,0,.63-1.14,4.1,4.1,0,0,1-.5,1.06l1.13-.77h0c.16-.25.32-.5.45-.76a7.55,7.55,0,0,1-.34.68l1.23-.84-1.19.87.74-.11-.86.2h0l-1.11.81a2,2,0,0,1,1,0,3,3,0,0,0-1.15.08l-.62.45a1.82,1.82,0,0,0,2.47,0A5,5,0,0,0,51.5,33.95Z" transform="translate(-11.97 -9.31)"/><path class="cls-9" d="M45,18.71A6.08,6.08,0,0,0,43.85,23a2.14,2.14,0,0,0,2,2.06l-.11-.89a7,7,0,0,0-.83-1.26A4.7,4.7,0,0,1,45.69,24l-.15-1.57h0c-.17-.3-.34-.59-.53-.88a8.63,8.63,0,0,1,.52.72l-.16-1.71.22,1.69.31-.81-.28,1h0l.21,1.57a2.37,2.37,0,0,1,.6-1,3.42,3.42,0,0,0-.58,1.21L46,25a2.12,2.12,0,0,0,1.37-2.54A5.68,5.68,0,0,0,45,18.71Z" transform="translate(-11.97 -9.31)"/><path class="cls-2" d="M47.66,9.31a7.3,7.3,0,0,0-4.91,2.93A2.79,2.79,0,0,0,43.23,16l.63-.94a8.36,8.36,0,0,0,.12-2,5.74,5.74,0,0,1,0,1.78l1.15-1.62h0c.06-.44.12-.88.14-1.32a10.44,10.44,0,0,1,0,1.15l1.26-1.77-1.17,1.8,1-.48-1.15.67h0L44.14,15a3.12,3.12,0,0,1,1.55-.4,4.33,4.33,0,0,0-1.68.61l-.6.94A2.78,2.78,0,0,0,47.09,15,6.85,6.85,0,0,0,47.66,9.31Z" transform="translate(-11.97 -9.31)"/><path class="cls-3" d="M40.2,10.36A6.2,6.2,0,0,0,38.65,15a2.39,2.39,0,0,0,2.46,2.14l-.12-1a7.09,7.09,0,0,0-1-1.33A4.88,4.88,0,0,1,41,16L40.8,14.3h0c-.21-.32-.42-.63-.66-.92a8.87,8.87,0,0,1,.64.75l-.18-1.84.26,1.81.4-.89-.37,1.08h0L41.12,16a2.68,2.68,0,0,1,.78-1.13,3.7,3.7,0,0,0-.76,1.33l.14.94a2.38,2.38,0,0,0,1.78-2.79A5.81,5.81,0,0,0,40.2,10.36Z" transform="translate(-11.97 -9.31)"/><path class="cls-2" d="M34.93,12.51s-2.32,2.65-1.73,5.77a3,3,0,0,0,3.13,2.51l-.19-1.17A8.69,8.69,0,0,0,34.81,18a6,6,0,0,1,1.31,1.35l-.28-2.07h0c-.27-.38-.55-.75-.85-1.1a10.89,10.89,0,0,1,.83.89l-.3-2.25.39,2.21.46-1.11-.41,1.34h0l.37,2.06a3.3,3.3,0,0,1,.92-1.42,4.55,4.55,0,0,0-.88,1.67l.21,1.15a2.94,2.94,0,0,0,2.09-3.51A7.13,7.13,0,0,0,34.93,12.51Z" transform="translate(-11.97 -9.31)"/><path class="cls-3" d="M40.16,26.58a4.7,4.7,0,0,0,.07,3.74,1.83,1.83,0,0,0,2.34.87l-.34-.66a5.37,5.37,0,0,0-1.1-.67,3.71,3.71,0,0,1,1,.54l-.56-1.17h0c-.23-.17-.47-.34-.72-.49a6.74,6.74,0,0,1,.66.37l-.61-1.27.66,1.23.06-.75v.87h0l.61,1.15a2.06,2.06,0,0,1,.28-1,2.83,2.83,0,0,0-.21,1.16l.35.64a1.83,1.83,0,0,0,.57-2.48A4.41,4.41,0,0,0,40.16,26.58Z" transform="translate(-11.97 -9.31)"/><path class="cls-3" d="M26.46,16.4a7.29,7.29,0,0,0,3.22,4.72,2.79,2.79,0,0,0,3.72-.73l-1-.57a8.34,8.34,0,0,0-2,0,5.72,5.72,0,0,1,1.78-.12l-1.69-1h0c-.44,0-.88-.06-1.32-.06a10.42,10.42,0,0,1,1.15-.06L28.52,17.4l1.86,1.05-.54-1,.74,1.11h0l1.74,1A3.12,3.12,0,0,1,31.83,18a4.33,4.33,0,0,0,.71,1.64l1,.54a2.78,2.78,0,0,0-1.34-3.62A6.83,6.83,0,0,0,26.46,16.4Z" transform="translate(-11.97 -9.31)"/><path class="cls-10" d="M27.62,23.94a6.54,6.54,0,0,0,4.69.07A2.27,2.27,0,0,0,34,21.49l-.9.34A7.58,7.58,0,0,0,32,23a5.05,5.05,0,0,1,.92-1.11l-1.59.56h0c-.27.25-.53.5-.78.76a9.29,9.29,0,0,1,.61-.71l-1.73.61,1.69-.66-.92-.1,1.09,0h0l1.58-.62a2.51,2.51,0,0,1-1.21-.35,3.66,3.66,0,0,0,1.4.27l.88-.35a2.25,2.25,0,0,0-3-.72A6.11,6.11,0,0,0,27.62,23.94Z" transform="translate(-11.97 -9.31)"/><path class="cls-3" d="M32.57,28.28A5.9,5.9,0,0,0,35,32.13a2.2,2.2,0,0,0,3-.32l-.75-.51a6.77,6.77,0,0,0-1.55-.12,4.61,4.61,0,0,1,1.41,0l-1.3-.92h0c-.35-.06-.69-.1-1-.13a8.41,8.41,0,0,1,.91,0l-1.41-1,1.44.93-.4-.81.55.9h0l1.34.87a2.45,2.45,0,0,1-.34-1.21,3.45,3.45,0,0,0,.5,1.31l.75.48a2.19,2.19,0,0,0-.94-2.88A5.52,5.52,0,0,0,32.57,28.28Z" transform="translate(-11.97 -9.31)"/><path class="cls-2" d="M29.75,25.49a6.45,6.45,0,0,0,.31,5.1,2.5,2.5,0,0,0,3.23,1.09l-.49-.88a7.37,7.37,0,0,0-1.53-.87,5.08,5.08,0,0,1,1.44.69l-.83-1.57h0c-.32-.22-.66-.44-1-.63a9.24,9.24,0,0,1,.92.47l-.9-1.71,1,1.65,0-1L31.95,29h0l.9,1.54a2.8,2.8,0,0,1,.32-1.4A3.86,3.86,0,0,0,33,30.73l.5.86a2.49,2.49,0,0,0,.64-3.41A6,6,0,0,0,29.75,25.49Z" transform="translate(-11.97 -9.31)"/><path class="cls-11" d="M29,28.87s-3-1.22-5.41.24a2.67,2.67,0,0,0-1.06,3.49l.92-.52a7.63,7.63,0,0,0,.88-1.65A5.31,5.31,0,0,1,23.6,32l1.64-.87h0c.23-.35.45-.71.64-1.08a9.62,9.62,0,0,1-.47,1l1.78-.95-1.72,1,1.08.06-1.26,0h0l-1.61.95a3,3,0,0,1,1.5.38,4.09,4.09,0,0,0-1.69-.26l-.89.53a2.66,2.66,0,0,0,3.64.76A6.28,6.28,0,0,0,29,28.87Z" transform="translate(-11.97 -9.31)"/><path class="cls-2" d="M35,38.22a5,5,0,0,0,2.77,2.38A1.77,1.77,0,0,0,40,39.83l-.71-.23a5.75,5.75,0,0,0-1.24.19,3.86,3.86,0,0,1,1.1-.24l-1.23-.44h0c-.28,0-.56,0-.84.1a7.07,7.07,0,0,1,.72-.14l-1.34-.47,1.34.42-.5-.52.64.56h0l1.25.39a2,2,0,0,1-.55-.82,2.82,2.82,0,0,0,.7.87l.7.22a1.75,1.75,0,0,0-1.41-1.93A4.65,4.65,0,0,0,35,38.22Z" transform="translate(-11.97 -9.31)"/><path class="cls-3" d="M39.84,40.94a4.87,4.87,0,0,0,.69,3.74,1.85,1.85,0,0,0,2.45.59l-.44-.62a5.58,5.58,0,0,0-1.19-.54,3.82,3.82,0,0,1,1.11.42l-.74-1.1h0c-.26-.14-.52-.28-.79-.4a7,7,0,0,1,.71.28l-.81-1.2.85,1.15-.06-.75.15.87h0l.79,1.07a2.07,2.07,0,0,1,.11-1.05,2.88,2.88,0,0,0,0,1.18l.45.6a1.84,1.84,0,0,0,.15-2.55A4.57,4.57,0,0,0,39.84,40.94Z" transform="translate(-11.97 -9.31)"/><path class="cls-2" d="M32,33a5.92,5.92,0,0,0-1.26,4.43,2.24,2.24,0,0,0,2.33,2L33,38.44a6.78,6.78,0,0,0-1-1.23,4.64,4.64,0,0,1,1,1l-.22-1.59h0c-.2-.29-.41-.58-.64-.86a8.46,8.46,0,0,1,.62.69l-.23-1.74.3,1.7.34-.85-.3,1h0l.28,1.59a2.51,2.51,0,0,1,.68-1.09,3.49,3.49,0,0,0-.65,1.28l.16.89a2.23,2.23,0,0,0,1.53-2.69A5.55,5.55,0,0,0,32,33Z" transform="translate(-11.97 -9.31)"/><path class="cls-2" d="M24.46,20.8a6.55,6.55,0,0,0-3.38,4,2.58,2.58,0,0,0,1.74,3.07l.24-1a7.47,7.47,0,0,0-.57-1.72,5.18,5.18,0,0,1,.63,1.52L23.59,25h0c-.1-.39-.2-.79-.33-1.17a9.4,9.4,0,0,1,.39,1l.51-1.9-.42,1.9.76-.73-.8.93h0l-.39,1.77a2.91,2.91,0,0,1,1.24-.82,4,4,0,0,0-1.29,1l-.21,1a2.58,2.58,0,0,0,2.91-2.1A6.14,6.14,0,0,0,24.46,20.8Z" transform="translate(-11.97 -9.31)"/><path class="cls-12" d="M27.73,28.16a4.84,4.84,0,0,0-3.64-.41,1.77,1.77,0,0,0-1.33,2l.7-.22a5.57,5.57,0,0,0,.88-.9,3.77,3.77,0,0,1-.74.86l1.24-.35h0c.21-.19.42-.38.62-.58a6.9,6.9,0,0,1-.49.55l1.35-.39L25,29.14l.71.15-.85-.1h0l-1.24.4a2,2,0,0,1,.93.38,2.8,2.8,0,0,0-1.08-.33l-.69.23a1.76,1.76,0,0,0,2.28.82A4.53,4.53,0,0,0,27.73,28.16Z" transform="translate(-11.97 -9.31)"/><path class="cls-2" d="M15.69,25.54a6.86,6.86,0,0,0,2.2,4.84,2.59,2.59,0,0,0,3.51,0l-.8-.69a7.87,7.87,0,0,0-1.79-.35,5.38,5.38,0,0,1,1.64.21l-1.38-1.25h0c-.4-.11-.79-.21-1.2-.29a9.8,9.8,0,0,1,1.06.16l-1.5-1.36,1.54,1.28-.34-1,.5,1.13h0l1.43,1.2A2.89,2.89,0,0,1,20.33,28a4,4,0,0,0,.39,1.61l.8.67a2.57,2.57,0,0,0-.66-3.5A6.43,6.43,0,0,0,15.69,25.54Z" transform="translate(-11.97 -9.31)"/><path class="cls-13" d="M15.52,28.05a6.74,6.74,0,0,0,2,4.51,2.39,2.39,0,0,0,3.17.34L20,32.22a7.78,7.78,0,0,0-1.62-.48,5.22,5.22,0,0,1,1.48.34l-1.25-1.24h0c-.36-.14-.72-.26-1.08-.37a9.57,9.57,0,0,1,1,.24l-1.36-1.35,1.39,1.29-.31-.92.46,1.06h0l1.3,1.2a2.65,2.65,0,0,1-.2-1.32,3.81,3.81,0,0,0,.36,1.47l.73.67a2.37,2.37,0,0,0-.61-3.18A6.3,6.3,0,0,0,15.52,28.05Z" transform="translate(-11.97 -9.31)"/><path class="cls-2" d="M12,40.56a7,7,0,0,0,5.25,1.65,2.69,2.69,0,0,0,2.34-2.83l-1.08.16A8,8,0,0,0,17,40.74a5.48,5.48,0,0,1,1.25-1.18l-1.89.23h0c-.35.24-.69.49-1,.77a10,10,0,0,1,.83-.75l-2.06.25,2-.33-1-.43,1.22.4h0l1.89-.31A3,3,0,0,1,17,38.52a4.16,4.16,0,0,0,1.52.82l1.06-.18a2.68,2.68,0,0,0-3.19-1.95A6.52,6.52,0,0,0,12,40.56Z" transform="translate(-11.97 -9.31)"/><path class="cls-2" d="M35.11,50a4.87,4.87,0,0,0,3.44-1.61,1.85,1.85,0,0,0,0-2.51l-.49.58a5.58,5.58,0,0,0-.22,1.29,3.82,3.82,0,0,1,.12-1.18l-.88,1h0c-.07.28-.14.57-.19.86a7,7,0,0,1,.1-.76l-1,1.08.9-1.11-.71.25.81-.37h0l.84-1a2.07,2.07,0,0,1-1,.16,2.88,2.88,0,0,0,1.15-.29l.47-.58a1.84,1.84,0,0,0-2.51.49A4.57,4.57,0,0,0,35.11,50Z" transform="translate(-11.97 -9.31)"/><path class="cls-14" d="M39.28,51.52a4.87,4.87,0,0,0,1.62-3.44,1.85,1.85,0,0,0-1.65-1.9v.76a5.58,5.58,0,0,0,.65,1.13,3.82,3.82,0,0,1-.66-1l0,1.33h0c.13.26.26.53.41.78a7,7,0,0,1-.41-.65l0,1.44,0-1.43-.39.65.38-.8h0l0-1.33a2.07,2.07,0,0,1-.7.79,2.88,2.88,0,0,0,.7-1v-.74a1.84,1.84,0,0,0-1.61,2A4.57,4.57,0,0,0,39.28,51.52Z" transform="translate(-11.97 -9.31)"/><path class="cls-15" d="M26.46,41.69a6.17,6.17,0,0,0,1.45,3.92c.79.9,1.89,1.21,2.53.75l-.56-.66a7.19,7.19,0,0,0-1.28-.63,4.73,4.73,0,0,1,1.18.49l-1-1.18h0c-.28-.16-.57-.32-.85-.46.25.09.51.21.76.34l-1-1.29,1.07,1.24-.22-.79.33.92h0l1,1.16a2.25,2.25,0,0,1-.11-1.09A3.35,3.35,0,0,0,30,45.64l.56.65c.59-.56.43-1.73-.37-2.64A5.75,5.75,0,0,0,26.46,41.69Z" transform="translate(-11.97 -9.31)"/><path class="cls-2" d="M20.65,46.44A6.59,6.59,0,0,0,25,49.28a2.55,2.55,0,0,0,2.85-2l-1-.13a7.53,7.53,0,0,0-1.64.73,5.19,5.19,0,0,1,1.44-.76l-1.79-.27h0c-.38.13-.76.27-1.13.44a9.44,9.44,0,0,1,.94-.47l-1.95-.3,1.93.21-.81-.65,1,.67h0l1.81.2a2.86,2.86,0,0,1-1-1.11A4,4,0,0,0,26.9,47l1,.1a2.55,2.55,0,0,0-2.41-2.59A6.18,6.18,0,0,0,20.65,46.44Z" transform="translate(-11.97 -9.31)"/><path class="cls-3" d="M25.35,52a6.05,6.05,0,0,0,4.7-.83,2.33,2.33,0,0,0,.69-3.1l-.77.55a6.92,6.92,0,0,0-.65,1.51,4.76,4.76,0,0,1,.5-1.4l-1.37.93h0c-.17.32-.34.65-.49,1a8.66,8.66,0,0,1,.34-.9l-1.49,1,1.43-1.06-1,.07,1.1-.18h0l1.34-1a2.62,2.62,0,0,1-1.33-.15,3.61,3.61,0,0,0,1.49,0l.74-.56a2.33,2.33,0,0,0-3.23-.23A5.67,5.67,0,0,0,25.35,52Z" transform="translate(-11.97 -9.31)"/><path class="cls-16" d="M24.71,50.11a4.8,4.8,0,0,0,3.79,0,1.85,1.85,0,0,0,.94-2.34l-.67.33a5.49,5.49,0,0,0-.71,1.09,3.78,3.78,0,0,1,.57-1l-1.19.55h0c-.18.23-.35.47-.51.71a6.87,6.87,0,0,1,.39-.66l-1.3.6,1.26-.65-.75-.07h.89l1.18-.6a2.07,2.07,0,0,1-1-.29,2.87,2.87,0,0,0,1.17.22l.65-.34a1.85,1.85,0,0,0-2.5-.6A4.5,4.5,0,0,0,24.71,50.11Z" transform="translate(-11.97 -9.31)"/><circle class="cls-17" cx="54.7" cy="24.44" r="2.19"/><circle class="cls-17" cx="54.7" cy="24.44" r="2.19"/><circle class="cls-17" cx="54.7" cy="24.44" r="2.19"/><circle class="cls-17" cx="54.7" cy="24.44" r="2.19"/><circle class="cls-18" cx="54.7" cy="24.44" r="2.19"/><circle class="cls-19" cx="45.97" cy="40.73" r="2.19"/><circle class="cls-19" cx="45.97" cy="40.73" r="2.19"/><circle class="cls-19" cx="45.97" cy="40.73" r="2.19"/><circle class="cls-19" cx="45.97" cy="40.73" r="2.19"/><circle class="cls-20" cx="45.97" cy="40.73" r="2.19"/><circle class="cls-21" cx="48.16" cy="39.32" r="2.19"/><circle class="cls-21" cx="48.16" cy="39.32" r="2.19"/><circle class="cls-21" cx="48.16" cy="39.32" r="2.19"/><circle class="cls-21" cx="48.16" cy="39.32" r="2.19"/><circle class="cls-22" cx="48.16" cy="39.32" r="2.19"/><circle class="cls-23" cx="40.88" cy="29.89" r="2.12"/><circle class="cls-23" cx="40.88" cy="29.89" r="2.12"/><circle class="cls-23" cx="40.88" cy="29.89" r="2.12"/><circle class="cls-23" cx="40.88" cy="29.89" r="2.12"/><circle class="cls-24" cx="40.88" cy="29.89" r="2.12"/><circle class="cls-25" cx="35.39" cy="18.24" r="2.31"/><circle class="cls-25" cx="35.39" cy="18.24" r="2.31"/><circle class="cls-25" cx="35.39" cy="18.24" r="2.31"/><circle class="cls-25" cx="35.39" cy="18.24" r="2.31"/><circle class="cls-26" cx="35.39" cy="18.24" r="2.31"/><circle class="cls-27" cx="15.95" cy="31.31" r="2.31"/><circle class="cls-27" cx="15.95" cy="31.31" r="2.31"/><circle class="cls-27" cx="15.95" cy="31.31" r="2.31"/><circle class="cls-27" cx="15.95" cy="31.31" r="2.31"/><circle class="cls-28" cx="15.95" cy="31.31" r="2.31"/><circle class="cls-29" cx="23.94" cy="14.24" r="1.95"/><circle class="cls-29" cx="23.94" cy="14.24" r="1.95"/><circle class="cls-29" cx="23.94" cy="14.24" r="1.95"/><circle class="cls-29" cx="23.94" cy="14.24" r="1.95"/><circle class="cls-30" cx="23.94" cy="14.24" r="1.95"/><circle class="cls-31" cx="20.44" cy="40.15" r="1.95"/><circle class="cls-31" cx="20.44" cy="40.15" r="1.95"/><circle class="cls-31" cx="20.44" cy="40.15" r="1.95"/><circle class="cls-31" cx="20.44" cy="40.15" r="1.95"/><circle class="cls-32" cx="20.44" cy="40.15" r="1.95"/><circle class="cls-33" cx="116.45" cy="49.31" r="3.78"/><circle class="cls-33" cx="116.45" cy="49.31" r="3.78"/><circle class="cls-33" cx="116.45" cy="49.31" r="3.78"/><circle class="cls-33" cx="116.45" cy="49.31" r="3.78"/><circle class="cls-34" cx="116.45" cy="49.31" r="3.78"/><path class="Graphic-Style-2" d="M72.22,41.38a4,4,0,0,0,2,.22,2,2,0,0,0,1.51-1.23,1.88,1.88,0,0,1-1.54,1.09,3.82,3.82,0,0,1-1.9-.34c-.61-.25-1.2-.57-1.86-.79a4.06,4.06,0,0,0-.93-.2,2.1,2.1,0,0,1,.36-.31c.29-.21.66-.38,1-.62a2,2,0,0,0,.82-1,1.65,1.65,0,0,0,0-1.21,1.53,1.53,0,0,1-.2,1.1,1.68,1.68,0,0,1-.84.65c-.34.14-.72.23-1.12.4A2.3,2.3,0,0,0,68.4,40l.2.1-.25,0a3.86,3.86,0,0,0-.9.33l-.12,0a2.45,2.45,0,0,1,.27-.81,3.06,3.06,0,0,1,1.27-1.17c.55-.31,1.17-.56,1.77-.93A3.51,3.51,0,0,0,72.08,36a2.74,2.74,0,0,0-.16-2.08,5.44,5.44,0,0,1-.4-1.88,2.79,2.79,0,0,1,.09-.94,1,1,0,0,1,.7-.54,1.82,1.82,0,0,1,1.76.57,1.88,1.88,0,0,0-1.79-.7,1.12,1.12,0,0,0-.84.58,2.5,2.5,0,0,0-.16.86,5.66,5.66,0,0,0,.27,2.1,2.37,2.37,0,0,1,.07,1.82A3,3,0,0,1,70.32,37c-.54.29-1.17.5-1.79.8a3.87,3.87,0,0,0-1.68,1.39,3.36,3.36,0,0,0-.46,1.2,3.82,3.82,0,0,0-1.25.41,14.23,14.23,0,0,0-1.71,1c-.26.18-.52.38-.77.58a8.73,8.73,0,0,0-1.1,0,3.27,3.27,0,0,1-1.7-.26c-.55-.22-1.12-.5-1.75-.74,0-.38.49-1,.92-1.47a13.3,13.3,0,0,1,1.62-1.57c.29-.25.61-.49.91-.77a4.86,4.86,0,0,1,1.52-.81,8.35,8.35,0,0,1,1.83.09,7.14,7.14,0,0,0,1.93,0,1.41,1.41,0,0,0,.75-.35,2.31,2.31,0,0,0,.56-1,2.59,2.59,0,0,1-.52.78,1.22,1.22,0,0,1-.8.32A6.78,6.78,0,0,1,65,36.45c-.36-.08-.72-.17-1.09-.23-.22,0-.44,0-.65,0s-.27-.2-.45-.42a.15.15,0,0,1,0-.06.14.14,0,0,1,0-.06,2.57,2.57,0,0,0,.08-.65.68.68,0,0,1,0-.22c.06-.18.28-.34.41-.48s.44-.44.66-.65q.64-.6,1.33-1.16c.44-.35.88-.71,1.32-1s.9-.57,1.41-.91a6.62,6.62,0,0,0,2.2-2.63c.24-.49.85-.66,1.18-1.19a.42.42,0,0,0,0-.45.65.65,0,0,1-.24-.33,1.09,1.09,0,0,1,.15-.8,1.11,1.11,0,0,0-.2.81.69.69,0,0,0,.23.36.32.32,0,0,1,0,.34c-.3.44-.94.58-1.27,1.11a6.26,6.26,0,0,1-2.26,2.36c-.45.26-1,.49-1.49.82l-1.41,1c-.43.29-.85.6-1.26.93a2,2,0,0,0,.25-.31,1.32,1.32,0,0,0-.42-1.62c-.37-.34-.82-.58-1.22-.89a.8.8,0,0,1-.34-.46c-.05-.31.22-.56.46-.75l1.52-1.2a13.91,13.91,0,0,0-2.13,1.64.83.83,0,0,0-.21.59c.05.41.5.58.79.82a6.22,6.22,0,0,1,1,1,.79.79,0,0,1,.18.36c.06.45-.47.79-.75,1.06a1.63,1.63,0,0,0-.4.54,2.5,2.5,0,0,0-.12.43,0,0,0,0,0,0,0s0,.1,0,.14a6.2,6.2,0,0,1-.32,2.17c0,.06-.09.11-.13.17l-.46.5c-.31.27-.66.53-1,.79a14.12,14.12,0,0,0-1.8,1.57,10.33,10.33,0,0,0-.81.92,2.4,2.4,0,0,0-.41.84l-.25-.06a3.89,3.89,0,0,0-1.23,0,6.49,6.49,0,0,0-2.18.66l-.3.18a4.58,4.58,0,0,0-.94-1.19c-.46-.4-1-.55-1.06-.78a1.11,1.11,0,0,1-.13-.51,1.35,1.35,0,0,1,.12-.56,4.49,4.49,0,0,1,2-1.78,6.65,6.65,0,0,0,2.31-1.81,5.81,5.81,0,0,0,.48-.82,1,1,0,0,0,.33.15,1.51,1.51,0,0,0,1.08,0A2.9,2.9,0,0,0,58.68,33a2.83,2.83,0,0,1-1.32,1.44,1.29,1.29,0,0,1-.92,0,.78.78,0,0,1-.29-.17,10.86,10.86,0,0,0,.55-1.58A10.84,10.84,0,0,1,56,34.08l-.31-.36a2.84,2.84,0,0,0-2-.92,3.93,3.93,0,0,0-1.62.31c0-.09,0-.18,0-.28l0-.23a1.36,1.36,0,0,1,0-.17,3,3,0,0,1,.15-.38,11.48,11.48,0,0,1,.87-1.53,4.8,4.8,0,0,1,1.11-1.29,11,11,0,0,1,1.56-.85,6.82,6.82,0,0,0,1.6-.94c.24-.2.43-.45.66-.63a3.81,3.81,0,0,1,.77-.47,3.87,3.87,0,0,0-.84.37c-.27.17-.49.39-.73.54a9,9,0,0,1-1.62.74,11.38,11.38,0,0,0-1.71.76,4.81,4.81,0,0,0-1.35,1.38,12.16,12.16,0,0,0-1,1.59,3.73,3.73,0,0,0-.2.46,2.14,2.14,0,0,0-.08.27l-.05.22c-.07.29-.15.57-.24.85l-.61,1.72a7.85,7.85,0,0,1-.74,1.52c-.3.51-.64,1-.94,1.61a.87.87,0,0,1-1.07.17,6.13,6.13,0,0,1-.85-1c-.28-.39-.54-.8-.79-1.21a5.88,5.88,0,0,1-.53-2.73c0-.67-.12-1.35-.22-2a14.45,14.45,0,0,0-1.14-4l0-.09a2.39,2.39,0,0,1,.9-1.2c.5-.37,1.25-.29,2-.6a1.43,1.43,0,0,0,.88-1.9,1.49,1.49,0,0,1,0-1.92,1.83,1.83,0,0,0-.45,1,1.17,1.17,0,0,0,0,.55c.06.18.17.33.23.48a1,1,0,0,1-.1.91,1.37,1.37,0,0,1-.75.56,4.27,4.27,0,0,1-1,.16,2.77,2.77,0,0,0-1.12.3,2.74,2.74,0,0,0-1,1,4.68,4.68,0,0,0-.81-1,6.26,6.26,0,0,0-1.85-1,5,5,0,0,1-2.4-2.71,4,4,0,0,1,0-1.86,2.18,2.18,0,0,1,1.06-1.47A7.42,7.42,0,0,0,43,16.47a5.25,5.25,0,0,1-1.46,1.31,17.83,17.83,0,0,1-1.78.87,2.63,2.63,0,0,0-.82.64,2.89,2.89,0,0,0-.48.93,5.52,5.52,0,0,0-.21,1,2.13,2.13,0,0,0-1.08-.09c-.46.06-.92.16-1.35.19a1.24,1.24,0,0,1-1.14-.43,1.44,1.44,0,0,0-1.24-.53,1.21,1.21,0,0,1,.64.19,1.3,1.3,0,0,1,.48.45,1.43,1.43,0,0,0,1.27.6c.48,0,.92-.08,1.37-.09a1.25,1.25,0,0,1,1,.27,3.67,3.67,0,0,0,.05.5,4.24,4.24,0,0,0,1,1.87,10.1,10.1,0,0,0,.74.76h0a2,2,0,0,0-.87.52,2.47,2.47,0,0,0-.56.81,6.5,6.5,0,0,0-.22.91,1.07,1.07,0,0,1-.47.66,1.1,1.1,0,0,1-.4.11.58.58,0,0,1-.39-.11c-.26-.15-.44-.4-.71-.57a1.14,1.14,0,0,0-.9-.11,1.11,1.11,0,0,1,.87.16c.24.17.41.45.67.63a.73.73,0,0,0,.47.17,1.26,1.26,0,0,0,.49-.1,1.29,1.29,0,0,0,.63-.76,6.71,6.71,0,0,1,.26-.86,2.13,2.13,0,0,1,.53-.66,1.56,1.56,0,0,1,.71-.37,1.7,1.7,0,0,1,.47,0l.31.2a5.75,5.75,0,0,1,1.61.94A4.49,4.49,0,0,1,43.34,28a13.39,13.39,0,0,1,.81,3.7c.06.64.08,1.28.09,1.93,0,.42,0,.87,0,1.33a5.5,5.5,0,0,0-2-.47h-.19a2.43,2.43,0,0,1,.25-.45c.18-.26.4-.52.59-.82a3.06,3.06,0,0,0,.3-2A2.85,2.85,0,0,1,42.6,33c-.21.23-.46.44-.71.69a2.32,2.32,0,0,0-.63,1l-.27.08a3.8,3.8,0,0,0-.58-1,2,2,0,0,0-1.21-.64,3.52,3.52,0,0,0-2.39.69,3.34,3.34,0,0,1,2.31-.33,1.49,1.49,0,0,1,.84.62,3.4,3.4,0,0,1,.36.93l-.21.1c-.64.35-1.2.75-1.8,1.08a3.1,3.1,0,0,1-1.85.51c-.25,0-.43-.27-.49-.58s-.08-.69-.16-1a5.47,5.47,0,0,0-.79-2,3.83,3.83,0,0,0-1.59-1.34,4.25,4.25,0,0,1,2.13,3.34c.06.34.06.67.1,1a1,1,0,0,0,.75.91,2.72,2.72,0,0,0,1.13-.05,5.71,5.71,0,0,0,1-.39c1.27-.62,2.45-1.48,3.69-1.39a4.08,4.08,0,0,1,1,.22,2.57,2.57,0,0,1,.85.39l.11.11a2.22,2.22,0,0,1,.29.42c.09.16.13.33.2.49a4.32,4.32,0,0,0,.57,1,11.32,11.32,0,0,1,1,1.56c.26.49.56,1,.79,1.45a5.27,5.27,0,0,1,.32.83,1.89,1.89,0,0,1,.13.9c-.41-.09-.79-.26-1.21-.34q-.37-.07-.74-.11l-.37,0a1.8,1.8,0,0,1-.29,0,2.29,2.29,0,0,0-.56-.59c-.07-.05-.13-.27-.2-.31a1.52,1.52,0,0,1-.12-.46,1.38,1.38,0,0,1,0-.46l.16-.52a3.37,3.37,0,0,0-.05-2.29,3.11,3.11,0,0,1-.41,2.1l-.29.51a2.07,2.07,0,0,0-.19.63c0,.07,0,.14,0,.21a3.51,3.51,0,0,0-1.08,0l-.34.07a3.85,3.85,0,0,0-1.75-1.41,3.53,3.53,0,0,1,1.48,1.5,2.74,2.74,0,0,0-.67.34c-.34.2-.71.46-1,.6a4.58,4.58,0,0,1-1.06.34c-.2,0-.4.07-.6.09-.2-.2-.4-.4-.62-.58a5.3,5.3,0,0,0-2.45-1.17A8.36,8.36,0,0,1,34,40.51a5.19,5.19,0,0,1-1-.36,11,11,0,0,1-1.81-1.43,5.67,5.67,0,0,0-.95-.68,1.65,1.65,0,0,1-.48-.77,3.15,3.15,0,0,1,0-1.32,12.11,12.11,0,0,1,.35-1.36,2.6,2.6,0,0,0,.08-.78,1.52,1.52,0,0,0-.29-.69,1.44,1.44,0,0,1,.13.69,1.57,1.57,0,0,1-.28.63,4.37,4.37,0,0,0-.54,1.41,3.75,3.75,0,0,0,0,1.57c0,.06,0,.12.05.18l-.31,0h-.1a3.33,3.33,0,0,1-2.1-.57,19.77,19.77,0,0,0-1.85-1.6c-.68-.48-1.39-.88-2.07-1.31s-1.32-1-1.25-1.72a3.61,3.61,0,0,1,.36-1.1,1.61,1.61,0,0,0,.2-.61c0-.22,0-.41,0-.61A6.91,6.91,0,0,1,22.35,29c.11-.37.48-.65.54-1.07-.09.41-.47.64-.63,1a6.33,6.33,0,0,0-.34,1.18c0,.2,0,.42-.05.6a1.4,1.4,0,0,1-.21.52,3.84,3.84,0,0,0-.45,1.18,1.67,1.67,0,0,0,.38,1.26,4.26,4.26,0,0,0,.94.86c.67.47,1.35.91,2,1.4a16.52,16.52,0,0,1,1.63,1.58,5.57,5.57,0,0,0-.92-.15,2.36,2.36,0,0,0-1.64.45,1.32,1.32,0,0,0-.46.78c-.06.27-.08.52-.12.76-.05.49-.33.82-.81.73A2,2,0,0,1,21,39.29a.86.86,0,0,0-.72-.28,6.28,6.28,0,0,1-.76,0c.48.08,1.08-.11,1.37.34a2.16,2.16,0,0,0,1.22,1,1,1,0,0,0,.85-.16,1.39,1.39,0,0,0,.42-.75c.14-.51.19-1,.51-1.19a1.76,1.76,0,0,1,1.24-.2,8.84,8.84,0,0,1,1.39.42,6,6,0,0,0,1.62.18c.37,0,.73,0,1.11-.05a2.09,2.09,0,0,1,.45.17,4.12,4.12,0,0,1,.84.67,11.55,11.55,0,0,0,1.92,1.67,5.47,5.47,0,0,0,1.25.51,8.85,8.85,0,0,0,1.24.22,3.71,3.71,0,0,1,1.36.6,5.82,5.82,0,0,0-2.23.22,7.3,7.3,0,0,1,2.71.15A10,10,0,0,1,38,44.09a3.21,3.21,0,0,0-1.55.36c-1,.55-1.84,1.25-2.77,1.81a3.51,3.51,0,0,1-2.94.73,3.52,3.52,0,0,0-3.17.36,3.4,3.4,0,0,1,3.1-.13,2.64,2.64,0,0,0,1.69.09,7.45,7.45,0,0,0,1.55-.64c1-.5,1.88-1.19,2.82-1.57a2.32,2.32,0,0,1,1.37-.15,2.13,2.13,0,0,1,1,.54,5.4,5.4,0,0,0,.9,1.06,3.24,3.24,0,0,0,1.42.67,7.56,7.56,0,0,0,1.32.18c.45,0,.9,0,1.35,0l.63,0a1.35,1.35,0,0,1,.55.09,1.05,1.05,0,0,1,.26.21,2.29,2.29,0,0,1,.42.77,11.26,11.26,0,0,0,.61,1.1,5,5,0,0,1,.58,1.09,1.27,1.27,0,0,1,0,.17,5,5,0,0,1,0,.93v.31l0,.73L47,54.74l-.08,2.36-.09,2.73-.1,3L46.65,66l-.11,3.24-.11,3.2-.1,3.07-.09,2.83-.08,2.49-.07,2,0,1.5,0,.86v.16c0,.85,1.53,1.3,3.34,1.3s3.19-.44,3.2-1.3L50.92,52.81a5.12,5.12,0,0,1,0-.65l0-.31a1.44,1.44,0,0,1,.28-.75l.1-.13a3.52,3.52,0,0,1,2.25-1.39c.24,0,.5-.08.78-.16a10.91,10.91,0,0,0,3.74-1.79c1-.78,2.08-1.5,3.1-2.38.48-.42.91-.84,1.34-1.26a2.9,2.9,0,0,0,.85.4,11.19,11.19,0,0,0,1.36.26c.83.13,1.62.46,1.72,1.27a9.46,9.46,0,0,1,0,1.3A1.91,1.91,0,0,0,67,48.56a1.12,1.12,0,0,0,.64.34c.23,0,.46,0,.66.07s.31.24.43.43.24.38.34.57c-.09-.21-.19-.4-.29-.6s-.19-.45-.44-.52a6.35,6.35,0,0,0-.66-.14.9.9,0,0,1-.49-.33,1.61,1.61,0,0,1-.29-1.16,9.36,9.36,0,0,0,.1-1.37,1.82,1.82,0,0,0-.72-1.34,3.83,3.83,0,0,0-1.33-.6c-.31-.07-.61-.15-.89-.24a4,4,0,0,0,.53.07,1.87,1.87,0,0,0,1.23-.33c.7-.59.8-1.31,1.19-1.71a3,3,0,0,1,.46-.43,6.1,6.1,0,0,1,2.4,2.18,7.34,7.34,0,0,0,1.4,1.41,3.91,3.91,0,0,0,1.86.66,1.76,1.76,0,0,1,.83.35.79.79,0,0,1,.31.78c-.16.6-.81.94-1.37,1.22a2.37,2.37,0,0,0,1.49-1.19,1,1,0,0,0-.3-.95,2,2,0,0,0-.9-.45,3.59,3.59,0,0,1-1.7-.71,6.93,6.93,0,0,1-1.22-1.41A13.59,13.59,0,0,0,69,41.58a4.46,4.46,0,0,0-.87-.73l.32-.12C69.7,40.32,71,40.94,72.22,41.38ZM42.77,45.74c-.38,0-.74,0-1.1-.09a1.61,1.61,0,0,1-.8-.27,11,11,0,0,1-1.49-1.7c-.2-.24-.41-.48-.63-.72h.15a5.28,5.28,0,0,0,1.27-.23,12,12,0,0,0,1.13-.48,2.05,2.05,0,0,1,1-.25h.11a2.75,2.75,0,0,0,1.15.5h.06a.94.94,0,0,1,.12.17c.11.26.27.69.42,1.05l.79,2C44.17,45.72,43.44,45.75,42.77,45.74Zm6.94-5.17a9.59,9.59,0,0,1,1.2-3.18,9,9,0,0,0,.7-1.82L52,34l0,0a3.73,3.73,0,0,1,1.75-.63,2.4,2.4,0,0,1,1.71.61c.13.11.26.26.42.38a5.58,5.58,0,0,1-.54.76A6.6,6.6,0,0,1,53,36.68a5.13,5.13,0,0,0-2.38,1.88,1.94,1.94,0,0,0-.12,1.73,1.83,1.83,0,0,0,.62.68,3.15,3.15,0,0,1,.49.41,3.56,3.56,0,0,1,.68,1.06v0s-1.07.91-1.17,1-.46.41-.67.64a2.55,2.55,0,0,0-.39.72c0,.05-.08.11-.13.08a.1.1,0,0,1,0-.06,2.08,2.08,0,0,1-.06-.49c0-.38,0-.76-.06-1.14A14.44,14.44,0,0,1,49.71,40.57ZM45.57,43.1c-.06-.13-.14-.24-.2-.37a4.42,4.42,0,0,1,1.37.26,1.26,1.26,0,0,1,.4.25,1.51,1.51,0,0,1,.24.35,2.13,2.13,0,0,1,.21.49,2.16,2.16,0,0,1,.05.39c0,.4,0,.79,0,1.19l0,.68a1.27,1.27,0,0,1,0,.42,4.22,4.22,0,0,1-.5-.38L47,46.3a.52.52,0,0,1-.07-.11c-.15-.31-.28-.64-.45-.94Zm7,3.13a8.09,8.09,0,0,1-1.5,2.27,6.44,6.44,0,0,1,.73-2.8,8.06,8.06,0,0,1,.9-1.16A3.71,3.71,0,0,1,52.6,46.23Zm7.82-1.95c-1,.74-2.1,1.4-3.17,2.12A9.29,9.29,0,0,1,54,47.71l-.48.08a5.06,5.06,0,0,0,.5-1.1,6.13,6.13,0,0,0-.18-3.14c.17-.12.34-.25.51-.36l.06,0a3.06,3.06,0,0,1,1.12.53A3.8,3.8,0,0,1,57,46.11a4.05,4.05,0,0,0-1.14-2.8,4.27,4.27,0,0,0-.63-.54,4.36,4.36,0,0,1,.71-.2,2.22,2.22,0,0,1,.77,0,5.18,5.18,0,0,1,.86.2c.6.18,1.21.44,1.88.67a4.31,4.31,0,0,0,1.13.24,4.42,4.42,0,0,0,.66,0C60.95,43.86,60.68,44.08,60.42,44.28Zm4.88-1.55a1.67,1.67,0,0,1-1.31,0l.05,0a13.32,13.32,0,0,1,1.53-1.07,3.45,3.45,0,0,1,.78-.36s0,.08,0,.12C65.89,41.89,65.67,42.51,65.3,42.73Z" transform="translate(-11.97 -9.31)"/><circle class="cls-35" cx="60.97" cy="38.54" r="2.19"/><circle class="cls-35" cx="60.97" cy="38.54" r="2.19"/><circle class="cls-35" cx="60.97" cy="38.54" r="2.19"/><circle class="cls-35" cx="60.97" cy="38.54" r="2.19"/><circle class="cls-36" cx="60.97" cy="38.54" r="2.19"/><circle class="cls-37" cx="62.81" cy="34.17" r="2.19"/><circle class="cls-37" cx="62.81" cy="34.17" r="2.19"/><circle class="cls-37" cx="62.81" cy="34.17" r="2.19"/><circle class="cls-37" cx="62.81" cy="34.17" r="2.19"/><circle class="cls-38" cx="62.81" cy="34.17" r="2.19"/><rect class="cls-39" x="56.76" y="20.49" width="4.83" height="4.83" rx="2.42" ry="2.42"/><rect class="cls-39" x="56.76" y="20.49" width="4.83" height="4.83" rx="2.42" ry="2.42"/><rect class="cls-39" x="56.76" y="20.49" width="4.83" height="4.83" rx="2.42" ry="2.42"/><rect class="cls-39" x="56.76" y="20.49" width="4.83" height="4.83" rx="2.42" ry="2.42"/><rect class="cls-40" x="56.76" y="20.49" width="4.83" height="4.83" rx="2.42" ry="2.42"/><circle class="cls-41" cx="30.28" cy="28.28" r="2.31"/><circle class="cls-41" cx="30.28" cy="28.28" r="2.31"/><circle class="cls-41" cx="30.28" cy="28.28" r="2.31"/><circle class="cls-41" cx="30.28" cy="28.28" r="2.31"/><circle class="cls-42" cx="30.28" cy="28.28" r="2.31"/><path class="cls-2" d="M31.08,49.53a4.87,4.87,0,0,0,3.77-.5,1.85,1.85,0,0,0,.71-2.41l-.64.41a5.58,5.58,0,0,0-.6,1.16,3.82,3.82,0,0,1,.47-1.09l-1.13.69h0c-.15.25-.3.5-.44.76a7,7,0,0,1,.32-.7l-1.24.75,1.19-.79-.76,0,.88-.11h0L34.73,47a2.07,2.07,0,0,1-1-.16,2.88,2.88,0,0,0,1.18.07l.62-.41a1.84,1.84,0,0,0-2.54-.28A4.57,4.57,0,0,0,31.08,49.53Z" transform="translate(-11.97 -9.31)"/><circle class="cls-43" cx="21.81" cy="36.2" r="2.31"/><circle class="cls-43" cx="21.81" cy="36.2" r="2.31"/><circle class="cls-43" cx="21.81" cy="36.2" r="2.31"/><circle class="cls-43" cx="21.81" cy="36.2" r="2.31"/><circle class="cls-44" cx="21.81" cy="36.2" r="2.31"/><path class="cls-3" d="M15.77,33.94a6.71,6.71,0,0,0,2.85,4.48,2.6,2.6,0,0,0,3.48-.64l-.89-.55a7.67,7.67,0,0,0-1.83,0A5.28,5.28,0,0,1,21,37.12l-1.54-1h0c-.41,0-.82-.07-1.23-.07a9.61,9.61,0,0,1,1.07,0l-1.68-1.1,1.7,1L18.88,35,19.54,36h0l1.59.95a2.91,2.91,0,0,1-.41-1.44,4,4,0,0,0,.61,1.55l.89.52a2.59,2.59,0,0,0-1.14-3.42A6.29,6.29,0,0,0,15.77,33.94Z" transform="translate(-11.97 -9.31)"/><path class="cls-3" d="M16.07,45.64A6.6,6.6,0,0,0,21,43.74a2.56,2.56,0,0,0,0-3.49l-.7.76a7.54,7.54,0,0,0-.36,1.76,5.2,5.2,0,0,1,.22-1.62l-1.27,1.3h0c-.11.39-.22.78-.3,1.18a9.45,9.45,0,0,1,.17-1L17.36,44l1.3-1.45-1,.28,1.14-.43h0L20,41a2.87,2.87,0,0,1-1.47.12,4,4,0,0,0,1.62-.29l.68-.76a2.55,2.55,0,0,0-3.53.44A6.19,6.19,0,0,0,16.07,45.64Z" transform="translate(-11.97 -9.31)"/><circle class="cls-45" cx="9.24" cy="25.97" r="2.31"/><circle class="cls-45" cx="9.24" cy="25.97" r="2.31"/><circle class="cls-45" cx="9.24" cy="25.97" r="2.31"/><circle class="cls-45" cx="9.24" cy="25.97" r="2.31"/><circle class="cls-46" cx="9.24" cy="25.97" r="2.31"/><path class="cls-2" d="M20.71,32.89a6.09,6.09,0,0,0,2,3.9,2.13,2.13,0,0,0,2.82.2l-.68-.58A7,7,0,0,0,23.43,36a4.7,4.7,0,0,1,1.33.25l-1.18-1h0c-.32-.11-.65-.21-1-.29a8.64,8.64,0,0,1,.86.18L22.17,34l1.3,1.08-.33-.8.47.91h0l1.22,1A2.36,2.36,0,0,1,24.58,35a3.42,3.42,0,0,0,.4,1.28l.68.56a2.11,2.11,0,0,0-.72-2.77A5.69,5.69,0,0,0,20.71,32.89Z" transform="translate(-11.97 -9.31)"/><circle class="cls-47" cx="25.93" cy="20.75" r="2.18"/><circle class="cls-47" cx="25.93" cy="20.75" r="2.18"/><circle class="cls-47" cx="25.93" cy="20.75" r="2.18"/><circle class="cls-47" cx="25.93" cy="20.75" r="2.18"/><circle class="cls-48" cx="25.93" cy="20.75" r="2.18"/><path class="cls-2" d="M35.47,31.51a4.81,4.81,0,0,0,.91,3.56,1.78,1.78,0,0,0,2.36.49L38.28,35a5.52,5.52,0,0,0-1.17-.48,3.75,3.75,0,0,1,1.08.37l-.78-1h0c-.25-.13-.51-.25-.77-.36a6.85,6.85,0,0,1,.7.25l-.85-1.12.88,1.08L37.25,33l.2.83h0l.82,1a2,2,0,0,1,0-1,2.8,2.8,0,0,0,.07,1.13l.46.56a1.77,1.77,0,0,0,0-2.45A4.5,4.5,0,0,0,35.47,31.51Z" transform="translate(-11.97 -9.31)"/><circle class="cls-49" cx="18.26" cy="23.88" r="1.95"/><circle class="cls-49" cx="18.26" cy="23.88" r="1.95"/><circle class="cls-49" cx="18.26" cy="23.88" r="1.95"/><circle class="cls-49" cx="18.26" cy="23.88" r="1.95"/><circle class="cls-50" cx="18.26" cy="23.88" r="1.95"/><path class="cls-3" d="M27.2,31a5.93,5.93,0,0,0-1.06,4.29,2.14,2.14,0,0,0,2.11,1.94l-.14-.88a6.83,6.83,0,0,0-.91-1.21,4.61,4.61,0,0,1,.89,1l-.21-1.55h0c-.18-.29-.37-.57-.58-.84a8.44,8.44,0,0,1,.56.68l-.23-1.69.29,1.66.29-.82-.26,1h0l.27,1.55a2.37,2.37,0,0,1,.59-1,3.39,3.39,0,0,0-.56,1.23l.16.87a2.12,2.12,0,0,0,1.33-2.59A5.55,5.55,0,0,0,27.2,31Z" transform="translate(-11.97 -9.31)"/><path class="cls-3" d="M31.32,34.07a4.78,4.78,0,0,0,1.94,3.2,1.82,1.82,0,0,0,2.46-.34l-.62-.41a5.47,5.47,0,0,0-1.28-.07,3.75,3.75,0,0,1,1.17,0l-1.07-.75h0c-.29,0-.57-.07-.86-.09a6.83,6.83,0,0,1,.76,0l-1.16-.81,1.18.76-.32-.67.45.75h0l1.1.71a2,2,0,0,1-.27-1,2.83,2.83,0,0,0,.41,1.1l.62.39A1.82,1.82,0,0,0,35,34.41,4.48,4.48,0,0,0,31.32,34.07Z" transform="translate(-11.97 -9.31)"/><circle class="cls-51" cx="24.83" cy="30.28" r="2.31"/><circle class="cls-51" cx="24.83" cy="30.28" r="2.31"/><circle class="cls-51" cx="24.83" cy="30.28" r="2.31"/><circle class="cls-51" cx="24.83" cy="30.28" r="2.31"/><circle class="cls-52" cx="24.83" cy="30.28" r="2.31"/><path class="cls-2" d="M42.72,37.64A4.7,4.7,0,0,0,44.29,41a1.81,1.81,0,0,0,2.47-.11l-.57-.46a5.38,5.38,0,0,0-1.26-.19,3.7,3.7,0,0,1,1.16.09l-1-.84h0c-.28-.06-.56-.12-.84-.16a6.73,6.73,0,0,1,.75.07l-1.06-.92,1.09.86-.24-.7.36.79h0l1,.8a2,2,0,0,1-.16-1,2.81,2.81,0,0,0,.28,1.13l.57.45a1.81,1.81,0,0,0-.48-2.47A4.41,4.41,0,0,0,42.72,37.64Z" transform="translate(-11.97 -9.31)"/><path class="cls-2" d="M48.79,27.48a5.08,5.08,0,0,0-3.48,1.92A1.94,1.94,0,0,0,45.56,32l.46-.64A5.82,5.82,0,0,0,46.15,30a4,4,0,0,1,0,1.24l.84-1.1h0c.05-.3.1-.61.13-.91a7.27,7.27,0,0,1,0,.8l.91-1.2-.85,1.22.73-.31L47,30.2h0l-.8,1.14a2.17,2.17,0,0,1,1.08-.24,3,3,0,0,0-1.18.38l-.44.64a1.93,1.93,0,0,0,2.59-.7A4.76,4.76,0,0,0,48.79,27.48Z" transform="translate(-11.97 -9.31)"/><path class="cls-3" d="M54.49,33a4.58,4.58,0,0,0-3.42,1.39,1.82,1.82,0,0,0,.09,2.48l.48-.54a5.22,5.22,0,0,0,.2-1.26,3.63,3.63,0,0,1-.1,1.15l.86-.93h0c.07-.28.13-.55.17-.84a6.58,6.58,0,0,1-.08.74l.94-1-.88,1,.71-.21-.8.32h0l-.82,1a2,2,0,0,1,1-.1,2.79,2.79,0,0,0-1.15.22l-.46.55a1.81,1.81,0,0,0,2.51-.34A4.3,4.3,0,0,0,54.49,33Z" transform="translate(-11.97 -9.31)"/><path class="cls-2" d="M77.68,22.5a6.84,6.84,0,0,0-5.15,1.68,2.65,2.65,0,0,0-.26,3.6l.77-.74a7.81,7.81,0,0,0,.48-1.8,5.39,5.39,0,0,1-.33,1.66l1.38-1.26h0c.14-.39.27-.79.38-1.2a9.79,9.79,0,0,1-.23,1.07l1.51-1.38-1.43,1.42,1.06-.23-1.2.38h0L73.33,27a3,3,0,0,1,1.52,0,4.09,4.09,0,0,0-1.68.21l-.74.75a2.64,2.64,0,0,0,3.66-.26A6.41,6.41,0,0,0,77.68,22.5Z" transform="translate(-11.97 -9.31)"/><path class="cls-2" d="M64.11,20.76s-.47,3.58,1.8,5.81a3,3,0,0,0,4.08.21l-.82-.86a8.61,8.61,0,0,0-2-.51,6,6,0,0,1,1.87.34L67.6,24.2h0c-.44-.15-.89-.29-1.35-.4a10.84,10.84,0,0,1,1.21.24l-1.53-1.68,1.58,1.59-.24-1.19.41,1.36h0l1.48,1.49a3.37,3.37,0,0,1,0-1.73,4.59,4.59,0,0,0,.2,1.91l.83.83a3,3,0,0,0-.21-4.15A7.09,7.09,0,0,0,64.11,20.76Z" transform="translate(-11.97 -9.31)"/><path class="cls-3" d="M67.26,24.81A6,6,0,0,0,63,27.18a2.38,2.38,0,0,0,.49,3.21l.54-.78a6.9,6.9,0,0,0,.07-1.67,4.78,4.78,0,0,1,0,1.52l1-1.35h0c0-.37.09-.74.1-1.12a8.67,8.67,0,0,1,0,1l1.06-1.47-1,1.5.89-.38-1,.54h0l-.92,1.4a2.68,2.68,0,0,1,1.34-.3,3.66,3.66,0,0,0-1.45.47l-.51.79a2.37,2.37,0,0,0,3.2-.86A5.67,5.67,0,0,0,67.26,24.81Z" transform="translate(-11.97 -9.31)"/><path class="cls-2" d="M66.92,30.48a5.84,5.84,0,0,0-3.59,2.37,2.08,2.08,0,0,0,.17,2.78L64,34.9a6.74,6.74,0,0,0,.17-1.46,4.53,4.53,0,0,1-.07,1.32L65,33.51h0c.06-.33.12-.66.16-1a8.3,8.3,0,0,1-.07.86L66,32l-.9,1.38.75-.4-.84.54h0l-.84,1.29a2.31,2.31,0,0,1,1.11-.36,3.32,3.32,0,0,0-1.21.51l-.47.72a2.06,2.06,0,0,0,2.65-1A5.46,5.46,0,0,0,66.92,30.48Z" transform="translate(-11.97 -9.31)"/><circle class="cls-53" cx="52" cy="29.95" r="2.71"/><circle class="cls-53" cx="52" cy="29.95" r="2.71"/><circle class="cls-53" cx="52" cy="29.95" r="2.71"/><circle class="cls-53" cx="52" cy="29.95" r="2.71"/><circle class="cls-54" cx="52" cy="29.95" r="2.71"/><path class="cls-2" d="M59.86,31a5.59,5.59,0,0,0-2.7,3.64,2.23,2.23,0,0,0,1.73,2.52l.15-.87a6.37,6.37,0,0,0-.62-1.44,4.44,4.44,0,0,1,.65,1.27l.3-1.52h0c-.11-.33-.23-.66-.37-1a8,8,0,0,1,.4.83l.32-1.66-.24,1.65.62-.67-.64.84h0l-.23,1.54a2.53,2.53,0,0,1,1-.77,3.42,3.42,0,0,0-1.07,1l-.12.86a2.23,2.23,0,0,0,2.42-2A5.25,5.25,0,0,0,59.86,31Z" transform="translate(-11.97 -9.31)"/><path class="cls-2" d="M75.61,39.87a5.61,5.61,0,0,0-4.55.06,2.24,2.24,0,0,0-1,2.92l.78-.41a6.39,6.39,0,0,0,.77-1.37A4.46,4.46,0,0,1,71,42.36l1.4-.69h0c.2-.29.39-.58.56-.89a8.07,8.07,0,0,1-.42.83l1.52-.75-1.47.81.91.08H72.47l-1.37.75a2.54,2.54,0,0,1,1.25.36,3.44,3.44,0,0,0-1.42-.27l-.76.43a2.24,2.24,0,0,0,3,.74A5.27,5.27,0,0,0,75.61,39.87Z" transform="translate(-11.97 -9.31)"/><path class="cls-3" d="M71.43,43.06a4.62,4.62,0,0,0-3.38-1.62,1.85,1.85,0,0,0-1.78,1.8l.73,0a5.26,5.26,0,0,0,1.07-.73,3.67,3.67,0,0,1-.92.73h1.29c.25-.14.5-.29.74-.45a6.64,6.64,0,0,1-.61.46H70l-1.38.06.64.39-.79-.38h0l-1.29.06a2.09,2.09,0,0,1,.79.72,2.83,2.83,0,0,0-.95-.71l-.72,0a1.85,1.85,0,0,0,2,1.65A4.34,4.34,0,0,0,71.43,43.06Z" transform="translate(-11.97 -9.31)"/><path class="cls-2" d="M58.57,49.47a4.58,4.58,0,0,0,.26-3.59,1.76,1.76,0,0,0-2.12-1.09l.26.67a5.25,5.25,0,0,0,1,.76,3.6,3.6,0,0,1-.93-.63l.42,1.18h0c.2.19.41.37.63.54a6.56,6.56,0,0,1-.59-.42l.46,1.28-.51-1.25-.12.71.07-.84h0l-.47-1.17a2,2,0,0,1-.35.94,2.72,2.72,0,0,0,.29-1.09l-.27-.65a1.75,1.75,0,0,0-.75,2.31A4.3,4.3,0,0,0,58.57,49.47Z" transform="translate(-11.97 -9.31)"/><path class="cls-55" d="M45.31,18.91a6.14,6.14,0,0,0-4.91.17,2.41,2.41,0,0,0-1.06,3.12l.85-.46A7,7,0,0,0,41,20.27a4.85,4.85,0,0,1-.67,1.38l1.51-.76h0c.21-.31.42-.63.61-1a8.8,8.8,0,0,1-.45.89L43.68,20l-1.59.89,1,.07-1.15,0h0l-1.48.83a2.71,2.71,0,0,1,1.35.35,3.71,3.71,0,0,0-1.53-.25l-.82.47a2.41,2.41,0,0,0,3.28.7A5.76,5.76,0,0,0,45.31,18.91Z" transform="translate(-11.97 -9.31)"/><circle class="cls-56" cx="29.09" cy="11.07" r="1.95"/><circle class="cls-56" cx="29.09" cy="11.07" r="1.95"/><circle class="cls-56" cx="29.09" cy="11.07" r="1.95"/><circle class="cls-56" cx="29.09" cy="11.07" r="1.95"/><circle class="cls-57" cx="29.09" cy="11.07" r="1.95"/><path class="cls-2" d="M46.4,16.48s-.2,3.47,2.15,5.54a2.91,2.91,0,0,0,4,.06l-.86-.8a8.57,8.57,0,0,0-2-.42,5.91,5.91,0,0,1,1.84.26L50,19.68h0c-.44-.13-.88-.25-1.33-.34a10.74,10.74,0,0,1,1.19.19l-1.6-1.57,1.64,1.48-.31-1.15.49,1.3h0L51.62,21a3.26,3.26,0,0,1-.14-1.67,4.49,4.49,0,0,0,.33,1.84l.86.77a2.9,2.9,0,0,0-.5-4A7,7,0,0,0,46.4,16.48Z" transform="translate(-11.97 -9.31)"/><path class="cls-2" d="M41.75,19.62a4.37,4.37,0,0,0-2.38,2.63,1.75,1.75,0,0,0,1.16,2.1l.18-.67a5,5,0,0,0-.37-1.16,3.47,3.47,0,0,1,.41,1l.34-1.16h0c-.06-.27-.13-.53-.21-.79a6.29,6.29,0,0,1,.25.68L41.51,21l-.31,1.27.53-.48-.56.61h0l-.29,1.18a2,2,0,0,1,.87-.53,2.68,2.68,0,0,0-.9.67l-.16.66a1.75,1.75,0,0,0,2-1.35A4.11,4.11,0,0,0,41.75,19.62Z" transform="translate(-11.97 -9.31)"/><path class="cls-3" d="M48.21,17.77A4.84,4.84,0,0,0,45,15.85a1.83,1.83,0,0,0-2,1.42l.75.08a5.55,5.55,0,0,0,1.18-.53,3.8,3.8,0,0,1-1,.55l1.3.17h0c.27-.1.55-.2.81-.32a6.92,6.92,0,0,1-.68.34l1.42.18-1.41-.12.6.44-.75-.45h0l-1.32-.11a2,2,0,0,1,.72.76,2.85,2.85,0,0,0-.88-.78l-.74-.06a1.82,1.82,0,0,0,1.8,1.77A4.54,4.54,0,0,0,48.21,17.77Z" transform="translate(-11.97 -9.31)"/><path class="cls-58" d="M51.57,13.87A7.46,7.46,0,0,0,51,19c.38,1.42,1.47,2.36,2.46,2.18l-.26-1a8.67,8.67,0,0,0-1.11-1.38A5.73,5.73,0,0,1,53.13,20l-.41-1.83h0c-.23-.33-.46-.66-.71-1,.24.24.46.51.68.78l-.45-2,.51,2,.21-1-.15,1.2h0l.48,1.82a2.78,2.78,0,0,1,.5-1.27,4.1,4.1,0,0,0-.44,1.5l.27,1c1-.31,1.48-1.7,1.09-3.15A7,7,0,0,0,51.57,13.87Z" transform="translate(-11.97 -9.31)"/><path class="cls-59" d="M29.64,26a5.43,5.43,0,0,0,3,2.54,1.92,1.92,0,0,0,2.41-.86l-.77-.24a6.27,6.27,0,0,0-1.34.22,4.2,4.2,0,0,1,1.19-.27l-1.34-.46h0c-.31,0-.61.06-.91.11a7.71,7.71,0,0,1,.78-.16l-1.46-.5,1.46.44-.55-.55.7.6h0l1.36.41a2.12,2.12,0,0,1-.61-.88,3.06,3.06,0,0,0,.78.93l.76.23a1.9,1.9,0,0,0-1.57-2.07A5.07,5.07,0,0,0,29.64,26Z" transform="translate(-11.97 -9.31)"/><path class="cls-2" d="M33.11,25.91a4.81,4.81,0,0,0,3.19,1.84,1.78,1.78,0,0,0,2-1.35l-.73-.08a5.52,5.52,0,0,0-1.16.5,3.75,3.75,0,0,1,1-.52l-1.28-.16h0c-.27.09-.54.19-.8.3a6.85,6.85,0,0,1,.67-.32L34.6,26l1.39.12-.59-.42.74.43h0l1.29.11a2,2,0,0,1-.7-.73,2.8,2.8,0,0,0,.86.74l.72.06a1.77,1.77,0,0,0-1.78-1.69A4.5,4.5,0,0,0,33.11,25.91Z" transform="translate(-11.97 -9.31)"/><circle class="cls-60" cx="10.52" cy="33.62" r="2.31"/><circle class="cls-60" cx="10.52" cy="33.62" r="2.31"/><circle class="cls-60" cx="10.52" cy="33.62" r="2.31"/><circle class="cls-60" cx="10.52" cy="33.62" r="2.31"/><circle class="cls-61" cx="10.52" cy="33.62" r="2.31"/><path class="cls-2" d="M21.53,41.43A4.87,4.87,0,0,0,25.31,41a1.85,1.85,0,0,0,.77-2.39l-.65.39a5.58,5.58,0,0,0-.63,1.15,3.82,3.82,0,0,1,.5-1.07l-1.15.66h0c-.16.24-.32.49-.46.75a7,7,0,0,1,.34-.69l-1.25.72L24,39.78h-.76l.88-.09h0L25.24,39a2.07,2.07,0,0,1-1-.19,2.88,2.88,0,0,0,1.18.1l.63-.4a1.84,1.84,0,0,0-2.53-.34A4.57,4.57,0,0,0,21.53,41.43Z" transform="translate(-11.97 -9.31)"/><path class="cls-2" d="M27,43a4.87,4.87,0,0,0,3.73.71,1.85,1.85,0,0,0,1.43-2.07l-.73.19a5.58,5.58,0,0,0-.93.91,3.82,3.82,0,0,1,.79-.88L30,42.15h0c-.23.19-.45.38-.66.59a7,7,0,0,1,.52-.56l-1.41.32,1.38-.37-.73-.22.87.17h0l1.29-.35a2.07,2.07,0,0,1-.94-.48,2.88,2.88,0,0,0,1.1.44l.72-.2a1.84,1.84,0,0,0-2.32-1.07A4.57,4.57,0,0,0,27,43Z" transform="translate(-11.97 -9.31)"/><path class="cls-2" d="M30.82,44a4.87,4.87,0,0,0,3.73.71A1.85,1.85,0,0,0,36,42.61l-.73.19a5.58,5.58,0,0,0-.93.91,3.82,3.82,0,0,1,.79-.88l-1.29.29h0c-.23.19-.45.38-.66.59a7,7,0,0,1,.52-.56l-1.41.32,1.38-.37-.73-.22.87.17h0l1.29-.35a2.07,2.07,0,0,1-.94-.48,2.88,2.88,0,0,0,1.1.44l.72-.2a1.84,1.84,0,0,0-2.32-1.07A4.57,4.57,0,0,0,30.82,44Z" transform="translate(-11.97 -9.31)"/><circle class="cls-62" cx="41.89" cy="14.31" r="2.4"/><circle class="cls-62" cx="41.89" cy="14.31" r="2.4"/><circle class="cls-62" cx="41.89" cy="14.31" r="2.4"/><circle class="cls-62" cx="41.89" cy="14.31" r="2.4"/><circle class="cls-63" cx="41.89" cy="14.31" r="2.4"/><circle class="cls-64" cx="42.6" cy="18.27" r="2.31"/><circle class="cls-64" cx="42.6" cy="18.27" r="2.31"/><circle class="cls-64" cx="42.6" cy="18.27" r="2.31"/><circle class="cls-64" cx="42.6" cy="18.27" r="2.31"/><circle class="cls-65" cx="42.6" cy="18.27" r="2.31"/><path class="cls-3" d="M55,28.37a4.07,4.07,0,0,0-1.56,2.95A1.65,1.65,0,0,0,55,32.93v-.65a4.63,4.63,0,0,0-.63-1,3.24,3.24,0,0,1,.63.84l0-1.13h0c-.12-.23-.25-.45-.39-.67a5.86,5.86,0,0,1,.4.55l0-1.23,0,1.22.38-.56-.37.68h0l0,1.14a1.87,1.87,0,0,1,.68-.68,2.52,2.52,0,0,0-.67.82v.64a1.65,1.65,0,0,0,1.55-1.71A3.82,3.82,0,0,0,55,28.37Z" transform="translate(-11.97 -9.31)"/><path class="cls-3" d="M53.41,40.35A4.87,4.87,0,0,0,50,41.91,1.81,1.81,0,0,0,50,44.35l.49-.56a5.59,5.59,0,0,0,.27-1.25,3.8,3.8,0,0,1-.17,1.14l.89-1h0c.08-.28.16-.55.22-.84a7,7,0,0,1-.12.74l1-1.05-.91,1.07.7-.24-.79.36h0l-.85,1a2,2,0,0,1,1-.16,2.83,2.83,0,0,0-1.12.28l-.47.56A1.8,1.8,0,0,0,52.5,44,4.56,4.56,0,0,0,53.41,40.35Z" transform="translate(-11.97 -9.31)"/><path class="cls-66" d="M58.09,25.57a4.62,4.62,0,0,0,.53,3.51,1.73,1.73,0,0,0,2.23.68l-.39-.6a5.3,5.3,0,0,0-1.08-.57,3.61,3.61,0,0,1,1,.45L59.75,28h0c-.23-.15-.47-.29-.71-.41a6.59,6.59,0,0,1,.65.3L59,26.71l.75,1.11,0-.7.12.82h0l.7,1a1.92,1.92,0,0,1,.13-1,2.7,2.7,0,0,0,0,1.1l.39.58a1.72,1.72,0,0,0,.21-2.36A4.33,4.33,0,0,0,58.09,25.57Z" transform="translate(-11.97 -9.31)"/><path class="cls-3" d="M59.21,21.68a4.45,4.45,0,0,0-2.63,2.55,1.82,1.82,0,0,0,1.15,2.22l.22-.67a5.05,5.05,0,0,0-.35-1.21,3.55,3.55,0,0,1,.4,1.08l.41-1.17h0c-.05-.28-.11-.55-.2-.83a6.41,6.41,0,0,1,.24.71l.45-1.27-.38,1.28.58-.46-.62.59h0l-.36,1.19a2.07,2.07,0,0,1,.94-.49,2.77,2.77,0,0,0-1,.63l-.2.67a1.82,1.82,0,0,0,2.21-1.26A4.18,4.18,0,0,0,59.21,21.68Z" transform="translate(-11.97 -9.31)"/><path class="cls-2" d="M63,44.9a4.75,4.75,0,0,0-1.89-3.25,1.83,1.83,0,0,0-2.48.34l.61.42a5.43,5.43,0,0,0,1.29.07,3.74,3.74,0,0,1-1.17,0l1.06.76h0c.29,0,.57.07.87.09a6.8,6.8,0,0,1-.76,0l1.15.83-1.17-.77.31.68-.43-.76h0l-1.09-.72a2.06,2.06,0,0,1,.25,1,2.84,2.84,0,0,0-.38-1.11l-.61-.4a1.83,1.83,0,0,0,.71,2.44A4.46,4.46,0,0,0,63,44.9Z" transform="translate(-11.97 -9.31)"/><path class="cls-67" d="M71.09,51.65a5.32,5.32,0,0,0-1.52-3.84,2,2,0,0,0-2.73-.13l.6.57a6.1,6.1,0,0,0,1.38.33,4.17,4.17,0,0,1-1.27-.22l1,1h0c.3.1.61.19.92.27a7.6,7.6,0,0,1-.82-.16L69.8,50.6l-1.14-1.05.23.79-.35-.9h0l-1.07-1a2.25,2.25,0,0,1,.11,1.14,3.13,3.13,0,0,0-.24-1.26l-.6-.55a2,2,0,0,0,.38,2.75A5,5,0,0,0,71.09,51.65Z" transform="translate(-11.97 -9.31)"/><path class="cls-68" d="M76.15,28a5.1,5.1,0,0,0-3.54-1.33,1.83,1.83,0,0,0-1.87,1.58l.77,0a5.88,5.88,0,0,0,1.12-.64,4,4,0,0,1-1,.64l1.34,0h0c.26-.13.53-.26.78-.4a7.25,7.25,0,0,1-.64.4l1.46,0-1.44.08.67.33L73,28.25h0l-1.35.07a2,2,0,0,1,.83.6,2.9,2.9,0,0,0-1-.6l-.75,0a1.81,1.81,0,0,0,2.07,1.38A4.77,4.77,0,0,0,76.15,28Z" transform="translate(-11.97 -9.31)"/><path class="cls-2" d="M72.61,29.46a4.78,4.78,0,0,0-3.71-.58A1.83,1.83,0,0,0,67.58,31l.71-.21a5.46,5.46,0,0,0,.88-.94,3.75,3.75,0,0,1-.74.91l1.26-.34h0c.21-.19.42-.39.62-.61a6.83,6.83,0,0,1-.49.58L71.2,30l-1.34.42.72.19-.86-.14h0l-1.25.39a2,2,0,0,1,.95.45,2.84,2.84,0,0,0-1.1-.4l-.7.22a1.82,1.82,0,0,0,2.33,1A4.48,4.48,0,0,0,72.61,29.46Z" transform="translate(-11.97 -9.31)"/><path class="cls-69" d="M82.66,38.33a6.89,6.89,0,0,0-4.84-.26c-1.3.45-2.09,1.54-1.86,2.47l.95-.31a8,8,0,0,0,1.21-1.13,5.31,5.31,0,0,1-1,1.08l1.68-.5h0c.29-.24.58-.48.85-.74-.21.24-.44.46-.68.69l1.83-.55-1.79.6.94.14-1.13-.07h0l-1.67.56a2.6,2.6,0,0,1,1.22.4,3.81,3.81,0,0,0-1.43-.33l-.93.32c.36.93,1.69,1.31,3,.85A6.43,6.43,0,0,0,82.66,38.33Z" transform="translate(-11.97 -9.31)"/></g></g></svg>