<?xml version="1.0" encoding="UTF-8"?>
<svg width="112px" height="112px" viewBox="0 0 112 112" version="1.1" xmlns="http://www.w3.org/2000/svg" xmlns:xlink="http://www.w3.org/1999/xlink">
    <!-- Generator: Sketch 43.2 (39069) - http://www.bohemiancoding.com/sketch -->
    <title>btn_aboutus</title>
    <desc>Created with Sketch.</desc>
    <defs>
        <filter x="-10.0%" y="-8.0%" width="120.0%" height="120.0%" filterUnits="objectBoundingBox" id="filter-1">
            <feOffset dx="0" dy="2" in="SourceAlpha" result="shadowOffsetOuter1"></feOffset>
            <feGaussianBlur stdDeviation="3" in="shadowOffsetOuter1" result="shadowBlurOuter1"></feGaussianBlur>
            <feColorMatrix values="0 0 0 0 0   0 0 0 0 0   0 0 0 0 0  0 0 0 0.5 0" type="matrix" in="shadowBlurOuter1" result="shadowMatrixOuter1"></feColorMatrix>
            <feMerge>
                <feMergeNode in="shadowMatrixOuter1"></feMergeNode>
                <feMergeNode in="SourceGraphic"></feMergeNode>
            </feMerge>
        </filter>
    </defs>
    <g id="01_Alani-Site" stroke="none" stroke-width="1" fill="none" fill-rule="evenodd">
        <g id="Landing-Page_v5" transform="translate(-969.000000, -2435.000000)">
            <g id="btn_aboutus" filter="url(#filter-1)" transform="translate(975.000000, 2439.000000)">
                <circle id="button" fill="#FF9900" cx="50" cy="50" r="50"></circle>
                <path d="M30.4,46 L29.52,43.824 L24.336,43.824 L23.456,46 L20.848,46 L25.712,34.8 L28.32,34.8 L33.104,46 L30.4,46 Z M25.168,41.792 L28.704,41.792 L26.944,37.44 L25.168,41.792 Z M39.424,34.8 C41.888,34.8 43.424,35.872 43.424,37.6 C43.424,38.8 42.688,39.744 41.488,40.064 C42.944,40.336 43.824,41.424 43.824,42.896 C43.824,44.816 42.192,46 39.6,46 L34.272,46 L34.272,34.8 L39.424,34.8 Z M39.296,39.312 C40.256,39.312 40.832,38.848 40.832,38.064 C40.832,37.296 40.256,36.848 39.296,36.864 L36.8,36.864 L36.8,39.312 L39.296,39.312 Z M39.296,43.936 C40.48,43.936 41.216,43.44 41.216,42.576 C41.216,41.76 40.48,41.264 39.296,41.28 L36.8,41.28 L36.8,43.936 L39.296,43.936 Z M50.88,34.72 C54.304,34.72 56.896,37.152 56.896,40.4 C56.896,43.632 54.304,46.112 50.88,46.112 C47.456,46.112 44.864,43.648 44.864,40.4 C44.864,37.136 47.456,34.72 50.88,34.72 Z M50.912,36.928 C49.024,36.928 47.456,38.432 47.456,40.4 C47.456,42.368 49.04,43.904 50.912,43.904 C52.784,43.904 54.304,42.368 54.304,40.4 C54.304,38.432 52.784,36.928 50.912,36.928 Z M60.88,41.312 L60.88,34.8 L58.352,34.8 L58.352,41.312 C58.352,44.272 60.336,46.112 63.44,46.112 C66.528,46.112 68.464,44.272 68.464,41.312 L68.464,34.8 L65.936,34.8 L65.936,41.312 C65.936,42.928 64.944,43.904 63.44,43.904 C61.936,43.904 60.88,42.928 60.88,41.312 Z M69.616,34.8 L69.616,36.944 L73.024,36.944 L73.024,46 L75.552,46 L75.552,36.944 L78.976,36.944 L78.976,34.8 L69.616,34.8 Z M42.376,60.312 L42.376,53.8 L39.848,53.8 L39.848,60.312 C39.848,63.272 41.832,65.112 44.936,65.112 C48.024,65.112 49.96,63.272 49.96,60.312 L49.96,53.8 L47.432,53.8 L47.432,60.312 C47.432,61.928 46.44,62.904 44.936,62.904 C43.432,62.904 42.376,61.928 42.376,60.312 Z M59.592,57 L60.568,54.904 C59.448,54.168 57.88,53.688 56.312,53.688 C53.72,53.688 51.976,54.968 51.976,57 C51.976,60.968 57.944,59.736 57.944,61.848 C57.944,62.536 57.32,62.92 56.28,62.92 C55.096,62.92 53.464,62.264 52.312,61.24 L51.304,63.304 C52.568,64.376 54.408,65.08 56.248,65.08 C58.728,65.08 60.632,63.896 60.632,61.704 C60.648,57.672 54.68,58.824 54.68,56.76 C54.68,56.152 55.256,55.848 56.104,55.848 C57,55.848 58.408,56.296 59.592,57 Z" id="ABOUT-US" fill="#FFFFFF"></path>
            </g>
        </g>
    </g>
</svg>