<?xml version="1.0" encoding="UTF-8"?>
<svg width="112px" height="112px" viewBox="0 0 112 112" version="1.1" xmlns="http://www.w3.org/2000/svg" xmlns:xlink="http://www.w3.org/1999/xlink">
    <!-- Generator: Sketch 43.2 (39069) - http://www.bohemiancoding.com/sketch -->
    <title>btn_ourapproach@1x</title>
    <desc>Created with Sketch.</desc>
    <defs>
        <filter x="-10.0%" y="-8.0%" width="120.0%" height="120.0%" filterUnits="objectBoundingBox" id="filter-1">
            <feOffset dx="0" dy="2" in="SourceAlpha" result="shadowOffsetOuter1"></feOffset>
            <feGaussianBlur stdDeviation="3" in="shadowOffsetOuter1" result="shadowBlurOuter1"></feGaussianBlur>
            <feColorMatrix values="0 0 0 0 0   0 0 0 0 0   0 0 0 0 0  0 0 0 0.5 0" type="matrix" in="shadowBlurOuter1" result="shadowMatrixOuter1"></feColorMatrix>
            <feMerge>
                <feMergeNode in="shadowMatrixOuter1"></feMergeNode>
                <feMergeNode in="SourceGraphic"></feMergeNode>
            </feMerge>
        </filter>
    </defs>
    <g id="01_Alani-Site" stroke="none" stroke-width="1" fill="none" fill-rule="evenodd">
        <g id="Landing-Page_v5" transform="translate(-969.000000, -3698.000000)">
            <g id="btn_ourapproach" filter="url(#filter-1)" transform="translate(975.000000, 3702.000000)">
                <circle id="button" fill="#FF9900" cx="50" cy="50" r="50"></circle>
                <path d="M39.112,34.13 C42.108,34.13 44.376,36.258 44.376,39.1 C44.376,41.928 42.108,44.098 39.112,44.098 C36.116,44.098 33.848,41.942 33.848,39.1 C33.848,36.244 36.116,34.13 39.112,34.13 Z M39.14,36.062 C37.488,36.062 36.116,37.378 36.116,39.1 C36.116,40.822 37.502,42.166 39.14,42.166 C40.778,42.166 42.108,40.822 42.108,39.1 C42.108,37.378 40.778,36.062 39.14,36.062 Z M47.862,39.898 L47.862,34.2 L45.65,34.2 L45.65,39.898 C45.65,42.488 47.386,44.098 50.102,44.098 C52.804,44.098 54.498,42.488 54.498,39.898 L54.498,34.2 L52.286,34.2 L52.286,39.898 C52.286,41.312 51.418,42.166 50.102,42.166 C48.786,42.166 47.862,41.312 47.862,39.898 Z M64.998,44 L62.492,44 L60.938,41.2 L58.684,41.2 L58.684,44 L56.472,44 L56.472,34.2 L60.728,34.2 C63.29,34.2 64.746,35.432 64.746,37.602 C64.746,39.114 64.102,40.206 62.912,40.766 L64.998,44 Z M58.684,36.034 L58.684,39.352 L60.728,39.352 C61.946,39.352 62.646,38.792 62.646,37.672 C62.646,36.58 61.946,36.034 60.728,36.034 L58.684,36.034 Z M16.887,62 L16.117,60.096 L11.581,60.096 L10.811,62 L8.529,62 L12.785,52.2 L15.067,52.2 L19.253,62 L16.887,62 Z M12.309,58.318 L15.403,58.318 L13.863,54.51 L12.309,58.318 Z M24.433,52.2 C26.925,52.2 28.353,53.432 28.353,55.602 C28.353,57.884 26.925,59.2 24.433,59.2 L22.487,59.2 L22.487,62 L20.275,62 L20.275,52.2 L24.433,52.2 Z M24.321,57.352 C25.553,57.352 26.253,56.792 26.253,55.672 C26.253,54.58 25.553,54.034 24.321,54.034 L22.487,54.034 L22.487,57.352 L24.321,57.352 Z M33.925,52.2 C36.417,52.2 37.845,53.432 37.845,55.602 C37.845,57.884 36.417,59.2 33.925,59.2 L31.979,59.2 L31.979,62 L29.767,62 L29.767,52.2 L33.925,52.2 Z M33.813,57.352 C35.045,57.352 35.745,56.792 35.745,55.672 C35.745,54.58 35.045,54.034 33.813,54.034 L31.979,54.034 L31.979,57.352 L33.813,57.352 Z M47.785,62 L45.279,62 L43.725,59.2 L41.471,59.2 L41.471,62 L39.259,62 L39.259,52.2 L43.515,52.2 C46.077,52.2 47.533,53.432 47.533,55.602 C47.533,57.114 46.889,58.206 45.699,58.766 L47.785,62 Z M41.471,54.034 L41.471,57.352 L43.515,57.352 C44.733,57.352 45.433,56.792 45.433,55.672 C45.433,54.58 44.733,54.034 43.515,54.034 L41.471,54.034 Z M53.959,52.13 C56.955,52.13 59.223,54.258 59.223,57.1 C59.223,59.928 56.955,62.098 53.959,62.098 C50.963,62.098 48.695,59.942 48.695,57.1 C48.695,54.244 50.963,52.13 53.959,52.13 Z M53.987,54.062 C52.335,54.062 50.963,55.378 50.963,57.1 C50.963,58.822 52.349,60.166 53.987,60.166 C55.625,60.166 56.955,58.822 56.955,57.1 C56.955,55.378 55.625,54.062 53.987,54.062 Z M67.651,62 L66.881,60.096 L62.345,60.096 L61.575,62 L59.293,62 L63.549,52.2 L65.831,52.2 L70.017,62 L67.651,62 Z M63.073,58.318 L66.167,58.318 L64.627,54.51 L63.073,58.318 Z M77.871,55.322 L79.159,53.754 C78.193,52.76 76.709,52.13 75.295,52.13 C72.327,52.13 70.073,54.258 70.073,57.086 C70.073,59.928 72.285,62.098 75.211,62.098 C76.639,62.098 78.137,61.412 79.173,60.348 L77.871,58.934 C77.171,59.634 76.205,60.082 75.323,60.082 C73.643,60.082 72.341,58.766 72.341,57.058 C72.341,55.35 73.643,54.048 75.323,54.048 C76.233,54.048 77.199,54.552 77.871,55.322 Z M80.489,52.2 L80.489,62 L82.701,62 L82.701,58.136 L87.139,58.136 L87.139,62 L89.351,62 L89.351,52.2 L87.139,52.2 L87.139,56.288 L82.701,56.288 L82.701,52.2 L80.489,52.2 Z" id="OUR-APPROACH" fill="#FFFFFF"></path>
            </g>
        </g>
    </g>
</svg>