<?xml version="1.0" encoding="UTF-8"?>
<svg width="112px" height="112px" viewBox="0 0 112 112" version="1.1" xmlns="http://www.w3.org/2000/svg" xmlns:xlink="http://www.w3.org/1999/xlink">
    <!-- Generator: Sketch 43.2 (39069) - http://www.bohemiancoding.com/sketch -->
    <title>btn_connect_active</title>
    <desc>Created with Sketch.</desc>
    <defs>
        <circle id="path-1" cx="50" cy="50" r="50"></circle>
        <filter x="-10.0%" y="-8.0%" width="120.0%" height="120.0%" filterUnits="objectBoundingBox" id="filter-2">
            <feOffset dx="0" dy="2" in="SourceAlpha" result="shadowOffsetOuter1"></feOffset>
            <feGaussianBlur stdDeviation="3" in="shadowOffsetOuter1" result="shadowBlurOuter1"></feGaussianBlur>
            <feColorMatrix values="0 0 0 0 0   0 0 0 0 0   0 0 0 0 0  0 0 0 0.5 0" type="matrix" in="shadowBlurOuter1"></feColorMatrix>
        </filter>
    </defs>
    <g id="01_Alani-Site" stroke="none" stroke-width="1" fill="none" fill-rule="evenodd">
        <g id="Landing-Page_v5" transform="translate(-969.000000, -6118.000000)">
            <g id="btn_connect_active" transform="translate(975.000000, 6122.000000)">
                <g id="Oval">
                    <use fill="black" fill-opacity="1" filter="url(#filter-2)" xlink:href="#path-1"></use>
                    <use fill="#FF9900" fill-rule="evenodd" xlink:href="#path-1"></use>
                </g>
                <path d="M29.212,34.8 L29.212,46 L36.54,46 L36.54,43.792 L31.74,43.792 L31.74,34.8 L29.212,34.8 Z M38.044,34.8 L38.044,46 L46.748,46 L46.748,43.904 L40.572,43.904 L40.572,41.424 L45.964,41.424 L45.964,39.328 L40.572,39.328 L40.572,36.896 L46.572,36.896 L46.572,34.8 L38.044,34.8 Z M47.628,34.8 L47.628,36.944 L51.036,36.944 L51.036,46 L53.564,46 L53.564,36.944 L56.988,36.944 L56.988,34.8 L47.628,34.8 Z M59.004,34.784 C58.3,34.784 57.772,35.296 57.772,36.032 C57.772,36.432 57.932,36.784 58.268,37.024 L57.596,38.64 L58.796,38.64 L59.868,37.024 C60.076,36.736 60.204,36.416 60.204,36.032 C60.204,35.232 59.644,34.784 59.004,34.784 Z M69.436,38 L70.412,35.904 C69.292,35.168 67.724,34.688 66.156,34.688 C63.564,34.688 61.82,35.968 61.82,38 C61.82,41.968 67.788,40.736 67.788,42.848 C67.788,43.536 67.164,43.92 66.124,43.92 C64.94,43.92 63.308,43.264 62.156,42.24 L61.148,44.304 C62.412,45.376 64.252,46.08 66.092,46.08 C68.572,46.08 70.476,44.896 70.476,42.704 C70.492,38.672 64.524,39.824 64.524,37.76 C64.524,37.152 65.1,36.848 65.948,36.848 C66.844,36.848 68.252,37.296 69.436,38 Z M18.636,57.368 L20.108,55.576 C19.004,54.44 17.308,53.72 15.692,53.72 C12.3,53.72 9.724,56.152 9.724,59.384 C9.724,62.632 12.252,65.112 15.596,65.112 C17.228,65.112 18.94,64.328 20.124,63.112 L18.636,61.496 C17.836,62.296 16.732,62.808 15.724,62.808 C13.804,62.808 12.316,61.304 12.316,59.352 C12.316,57.4 13.804,55.912 15.724,55.912 C16.764,55.912 17.868,56.488 18.636,57.368 Z M26.636,53.72 C30.06,53.72 32.652,56.152 32.652,59.4 C32.652,62.632 30.06,65.112 26.636,65.112 C23.212,65.112 20.62,62.648 20.62,59.4 C20.62,56.136 23.212,53.72 26.636,53.72 Z M26.668,55.928 C24.78,55.928 23.212,57.432 23.212,59.4 C23.212,61.368 24.796,62.904 26.668,62.904 C28.54,62.904 30.06,61.368 30.06,59.4 C30.06,57.432 28.54,55.928 26.668,55.928 Z M34.316,53.8 L34.316,65 L36.732,65 L36.732,57.816 L42.156,65 L44.46,65 L44.46,53.8 L42.06,53.8 L42.06,61 L36.62,53.8 L34.316,53.8 Z M46.924,53.8 L46.924,65 L49.34,65 L49.34,57.816 L54.764,65 L57.068,65 L57.068,53.8 L54.668,53.8 L54.668,61 L49.228,53.8 L46.924,53.8 Z M59.532,53.8 L59.532,65 L68.236,65 L68.236,62.904 L62.06,62.904 L62.06,60.424 L67.452,60.424 L67.452,58.328 L62.06,58.328 L62.06,55.896 L68.06,55.896 L68.06,53.8 L59.532,53.8 Z M78.332,57.368 L79.804,55.576 C78.7,54.44 77.004,53.72 75.388,53.72 C71.996,53.72 69.42,56.152 69.42,59.384 C69.42,62.632 71.948,65.112 75.292,65.112 C76.924,65.112 78.636,64.328 79.82,63.112 L78.332,61.496 C77.532,62.296 76.428,62.808 75.42,62.808 C73.5,62.808 72.012,61.304 72.012,59.352 C72.012,57.4 73.5,55.912 75.42,55.912 C76.46,55.912 77.564,56.488 78.332,57.368 Z M80.22,53.8 L80.22,55.944 L83.628,55.944 L83.628,65 L86.156,65 L86.156,55.944 L89.58,55.944 L89.58,53.8 L80.22,53.8 Z" id="LET’S-CONNECT" fill="#FFFFFF"></path>
            </g>
        </g>
    </g>
</svg>