<?xml version="1.0" encoding="UTF-8"?>
<svg width="112px" height="112px" viewBox="0 0 112 112" version="1.1" xmlns="http://www.w3.org/2000/svg" xmlns:xlink="http://www.w3.org/1999/xlink">
    <!-- Generator: Sketch 43.2 (39069) - http://www.bohemiancoding.com/sketch -->
    <title>btn_ourservices</title>
    <desc>Created with Sketch.</desc>
    <defs>
        <filter x="-10.0%" y="-8.0%" width="120.0%" height="120.0%" filterUnits="objectBoundingBox" id="filter-1">
            <feOffset dx="0" dy="2" in="SourceAlpha" result="shadowOffsetOuter1"></feOffset>
            <feGaussianBlur stdDeviation="3" in="shadowOffsetOuter1" result="shadowBlurOuter1"></feGaussianBlur>
            <feColorMatrix values="0 0 0 0 0   0 0 0 0 0   0 0 0 0 0  0 0 0 0.5 0" type="matrix" in="shadowBlurOuter1" result="shadowMatrixOuter1"></feColorMatrix>
            <feMerge>
                <feMergeNode in="shadowMatrixOuter1"></feMergeNode>
                <feMergeNode in="SourceGraphic"></feMergeNode>
            </feMerge>
        </filter>
    </defs>
    <g id="01_Alani-Site" stroke="none" stroke-width="1" fill="none" fill-rule="evenodd">
        <g id="Landing-Page_v5" transform="translate(-969.000000, -4937.000000)">
            <g id="btn_ourservices" filter="url(#filter-1)" transform="translate(975.000000, 4941.000000)">
                <circle id="button" fill="#FF9900" cx="50" cy="50" r="50"></circle>
                <path d="M38.128,32.72 C41.552,32.72 44.144,35.152 44.144,38.4 C44.144,41.632 41.552,44.112 38.128,44.112 C34.704,44.112 32.112,41.648 32.112,38.4 C32.112,35.136 34.704,32.72 38.128,32.72 Z M38.16,34.928 C36.272,34.928 34.704,36.432 34.704,38.4 C34.704,40.368 36.288,41.904 38.16,41.904 C40.032,41.904 41.552,40.368 41.552,38.4 C41.552,36.432 40.032,34.928 38.16,34.928 Z M48.128,39.312 L48.128,32.8 L45.6,32.8 L45.6,39.312 C45.6,42.272 47.584,44.112 50.688,44.112 C53.776,44.112 55.712,42.272 55.712,39.312 L55.712,32.8 L53.184,32.8 L53.184,39.312 C53.184,40.928 52.192,41.904 50.688,41.904 C49.184,41.904 48.128,40.928 48.128,39.312 Z M67.712,44 L64.848,44 L63.072,40.8 L60.496,40.8 L60.496,44 L57.968,44 L57.968,32.8 L62.832,32.8 C65.76,32.8 67.424,34.208 67.424,36.688 C67.424,38.416 66.688,39.664 65.328,40.304 L67.712,44 Z M60.496,34.896 L60.496,38.688 L62.832,38.688 C64.224,38.688 65.024,38.048 65.024,36.768 C65.024,35.52 64.224,34.896 62.832,34.896 L60.496,34.896 Z M18.208,55 L19.184,52.904 C18.064,52.168 16.496,51.688 14.928,51.688 C12.336,51.688 10.592,52.968 10.592,55 C10.592,58.968 16.56,57.736 16.56,59.848 C16.56,60.536 15.936,60.92 14.896,60.92 C13.712,60.92 12.08,60.264 10.928,59.24 L9.92,61.304 C11.184,62.376 13.024,63.08 14.864,63.08 C17.344,63.08 19.248,61.896 19.248,59.704 C19.264,55.672 13.296,56.824 13.296,54.76 C13.296,54.152 13.872,53.848 14.72,53.848 C15.616,53.848 17.024,54.296 18.208,55 Z M21.024,51.8 L21.024,63 L29.728,63 L29.728,60.904 L23.552,60.904 L23.552,58.424 L28.944,58.424 L28.944,56.328 L23.552,56.328 L23.552,53.896 L29.552,53.896 L29.552,51.8 L21.024,51.8 Z M41.456,63 L38.592,63 L36.816,59.8 L34.24,59.8 L34.24,63 L31.712,63 L31.712,51.8 L36.576,51.8 C39.504,51.8 41.168,53.208 41.168,55.688 C41.168,57.416 40.432,58.664 39.072,59.304 L41.456,63 Z M34.24,53.896 L34.24,57.688 L36.576,57.688 C37.968,57.688 38.768,57.048 38.768,55.768 C38.768,54.52 37.968,53.896 36.576,53.896 L34.24,53.896 Z M41.952,51.8 L46.352,63 L48.96,63 L53.408,51.8 L50.8,51.8 L47.728,60.248 L44.672,51.8 L41.952,51.8 Z M54.64,51.8 L54.64,63 L57.168,63 L57.168,51.8 L54.64,51.8 Z M67.76,55.368 L69.232,53.576 C68.128,52.44 66.432,51.72 64.816,51.72 C61.424,51.72 58.848,54.152 58.848,57.384 C58.848,60.632 61.376,63.112 64.72,63.112 C66.352,63.112 68.064,62.328 69.248,61.112 L67.76,59.496 C66.96,60.296 65.856,60.808 64.848,60.808 C62.928,60.808 61.44,59.304 61.44,57.352 C61.44,55.4 62.928,53.912 64.848,53.912 C65.888,53.912 66.992,54.488 67.76,55.368 Z M70.752,51.8 L70.752,63 L79.456,63 L79.456,60.904 L73.28,60.904 L73.28,58.424 L78.672,58.424 L78.672,56.328 L73.28,56.328 L73.28,53.896 L79.28,53.896 L79.28,51.8 L70.752,51.8 Z M88.816,55 L89.792,52.904 C88.672,52.168 87.104,51.688 85.536,51.688 C82.944,51.688 81.2,52.968 81.2,55 C81.2,58.968 87.168,57.736 87.168,59.848 C87.168,60.536 86.544,60.92 85.504,60.92 C84.32,60.92 82.688,60.264 81.536,59.24 L80.528,61.304 C81.792,62.376 83.632,63.08 85.472,63.08 C87.952,63.08 89.856,61.896 89.856,59.704 C89.872,55.672 83.904,56.824 83.904,54.76 C83.904,54.152 84.48,53.848 85.328,53.848 C86.224,53.848 87.632,54.296 88.816,55 Z" id="OUR-SERVICES" fill="#FFFFFF"></path>
            </g>
        </g>
    </g>
</svg>