<?xml version="1.0" encoding="UTF-8"?>
<svg width="82px" height="82px" viewBox="0 0 82 82" version="1.1" xmlns="http://www.w3.org/2000/svg" xmlns:xlink="http://www.w3.org/1999/xlink">
    <!-- Generator: Sketch 43.2 (39069) - http://www.bohemiancoding.com/sketch -->
    <title>icn_organicinnovation</title>
    <desc>Created with Sketch.</desc>
    <defs></defs>
    <g id="01_Alani-Site" stroke="none" stroke-width="1" fill="none" fill-rule="evenodd">
        <g id="Landing-Page_v5" transform="translate(-778.000000, -2161.000000)">
            <g id="icn_organicinnovation" transform="translate(779.000000, 2162.000000)">
                <circle id="Oval-2" stroke="#FFFFFF" stroke-width="0.8" cx="40" cy="40" r="40"></circle>
                <g id="Group-7" transform="translate(18.000000, 8.000000)">
                    <g id="Group-6">
                        <g id="Group-3" transform="translate(0.880000, 0.000000)" stroke="#FFFFFF" stroke-width="1.0296" stroke-dasharray="1.647359955310822">
                            <path d="M21.1000394,0 L21.1000394,11.6765479" id="Path-2"></path>
                            <path d="M42.5208345,19.3158482 L30.9946277,19.3158482" id="Path-2"></path>
                            <path d="M11.5262068,19.3158482 L0,19.3158482" id="Path-2"></path>
                            <path d="M13.0541985,16.2920054 L2.9731509,10.6311026" id="Path-2"></path>
                            <path d="M39.4443791,15.9588264 L29.3633315,10.2979236" id="Path-2" transform="translate(34.403855, 13.128375) scale(-1, 1) translate(-34.403855, -13.128375) "></path>
                            <path d="M31.4292351,2.81723473 L25.6661317,12.9294218" id="Path-2"></path>
                            <path d="M17.1821768,2.86134127 L11.4190734,12.9735284" id="Path-2" transform="translate(14.300625, 7.917435) scale(-1, 1) translate(-14.300625, -7.917435) "></path>
                        </g>
                        <g id="Page-1" transform="translate(0.000000, 41.704225)" stroke="#7ED321" stroke-width="0.88">
                            <path d="M22.6479821,4.24320044 L22.6479821,5.7986244 C22.6479821,6.56485608 23.2770855,7.18597128 24.0531717,7.18597128 L33.898141,7.18597128 C34.6742272,7.18597128 35.3033306,7.80708648 35.3033306,8.57331816 L35.3033306,12.3328201 C35.3033306,13.0990518 35.932434,13.720167 36.7085202,13.720167 L39.0678336,13.720167 C39.8439198,13.720167 40.4730232,14.3412822 40.4730232,15.1075139 L40.4730232,18.8947165" id="Stroke-1"></path>
                            <path d="M18.8981915,6.9367343e-06 L18.8981915,5.79863133 C18.8981915,6.56486302 18.2690881,7.18597822 17.4930018,7.18597822 L12.5835503,7.18597822 C11.8074641,7.18597822 11.1783607,7.80709342 11.1783607,8.5733251 L11.1783607,12.332827 C11.1783607,13.0990587 10.5491871,13.7201739 9.7731711,13.7201739 L6.68519665,13.7201739 C5.90911042,13.7201739 5.28000703,14.3412891 5.28000703,15.1075208 L5.28000703,17.1200756" id="Stroke-3"></path>
                            <path d="M20.6057006,1.77464789 L20.6673182,8.68238675 C20.6741333,9.44861843 20.0505804,10.0751443 19.2745645,10.0819423 L12.32,10.1436099" id="Stroke-5"></path>
                            <path d="M22.1570229,8.38492339 L22.1570229,9.82360211 C22.1570229,10.5898338 22.7861263,11.210949 23.5622125,11.210949 L33.2597774,11.210949" id="Stroke-7"></path>
                            <path d="M24.7592303,12.2386678 L24.7592303,15.9039689 C24.7592303,16.6702006 25.3883337,17.2913158 26.16442,17.2913158 L30.7269301,17.2913158 C31.5030164,17.2913158 32.1321198,17.9125004 32.1321198,18.6786627 L32.1321198,21.2306873" id="Stroke-9"></path>
                            <path d="M20.5089463,11.5535335 L20.5089463,13.1635496 C20.5089463,13.9297812 19.8798429,14.5508964 19.1037566,14.5508964 L16.7965055,14.5508964 C16.0204193,14.5508964 15.3913159,15.1720116 15.3913159,15.9382433 L15.3913159,18.9184725" id="Stroke-11"></path>
                            <path d="M24.3192303,0 L24.3192303,5.38665174" id="Stroke-13"></path>
                            <path d="M22.5194922,0.724416813 L22.5194922,2.52332746" id="Stroke-15"></path>
                            <path d="M5.28,18.6338028 L5.28,20.4327135" id="Stroke-15"></path>
                            <path d="M9.97433594,10.2878452 L0.333867188,10.2878452" id="Stroke-17"></path>
                            <path d="M42.2004688,11.5352113 L36.96,11.5352113" id="Stroke-17"></path>
                        </g>
                        <g id="icon_discover" transform="translate(11.440000, 11.535211)">
                            <path d="M12.1347954,27.9227997 L12.6060558,27.9227997 C13.6971489,27.9227997 14.5817397,27.0404183 14.5817397,25.9519456 L14.5817397,18.7502079 C17.6417254,17.0641948 19.7203227,13.7656323 19.7203227,9.97242847 C19.7203227,4.46480831 15.3381856,0 9.93254555,0 C4.52690549,0 0.144768392,4.46480831 0.144768392,9.97242847 C0.144768392,13.8658996 2.33470684,17.2382337 5.52804583,18.8805082 L5.52804583,25.9519456 C5.52804583,27.0335688 6.41258963,27.9227997 7.50372969,27.9227997 L7.97499012,27.9227997 L7.97499012,28.4302407 C7.97499012,28.6993226 8.19594636,28.9200426 8.46850969,28.9200426 L11.6412758,28.9200426 C11.9111462,28.9200426 12.1347954,28.7007508 12.1347954,28.4302407 L12.1347954,27.9227997 Z" id="Combined-Shape" stroke="#FFFFFF" stroke-width="1.0296" fill="#485563"></path>
                            <path d="M5.53254765,24.3754645 L14.5862415,24.3754645" id="Path-4" stroke="#FFFFFF" stroke-width="0.82368"></path>
                            <path d="M5.53254765,26.0280383 L14.5862415,26.0280383" id="Path-4" stroke="#FFFFFF" stroke-width="0.82368"></path>
                            <path d="M8.71357523,22.9365855 L6.79024184,9.44050686 C6.63620053,8.35959512 7.12227572,8.12552226 7.87522135,8.91695491 L9.55610373,10.683756 C9.83732613,10.9793532 10.2984882,10.9738763 10.5745001,10.683756 L12.2553825,8.91695491 C13.0086414,8.12519293 13.4807091,8.35845327 13.3093713,9.44050745 L11.1723342,22.9365902" id="Path-5" stroke="#7ED321" stroke-width="0.82368"></path>
                            <path d="M5.53254765,22.7228906 L14.5862415,22.7228906" id="Path-4" stroke="#FFFFFF" stroke-width="0.82368"></path>
                        </g>
                    </g>
                    <path d="M16.9680458,37.6324136 L26.0217397,37.6324136 L26.0217397,38.5452123 C26.0217397,39.0493371 25.6091951,39.458011 25.1037993,39.458011 L17.8859863,39.458011 C17.3790218,39.458011 16.9680458,39.0528518 16.9680458,38.5452123 L16.9680458,37.6324136 Z" id="Rectangle-2" fill="#FFFFFF"></path>
                    <path d="M19.4149901,38.9593896 L23.5747954,38.9593896 L23.5747954,39.9654519 C23.5747954,40.2359621 23.3511462,40.4552538 23.0812758,40.4552538 L19.9085097,40.4552538 C19.6359464,40.4552538 19.4149901,40.2345339 19.4149901,39.9654519 L19.4149901,38.9593896 Z" id="Rectangle-3" fill="#FFFFFF"></path>
                </g>
            </g>
        </g>
    </g>
</svg>