<?xml version="1.0" encoding="UTF-8"?>
<svg width="88px" height="88px" viewBox="0 0 88 88" version="1.1" xmlns="http://www.w3.org/2000/svg" xmlns:xlink="http://www.w3.org/1999/xlink">
    <!-- Generator: Sketch 43.2 (39069) - http://www.bohemiancoding.com/sketch -->
    <title>icon_careers_location</title>
    <desc>Created with Sketch.</desc>
    <defs>
        <filter x="-1.2%" y="-5.0%" width="136.2%" height="114.0%" filterUnits="objectBoundingBox" id="filter-1">
            <feOffset dx="0" dy="2" in="SourceAlpha" result="shadowOffsetOuter1"></feOffset>
            <feGaussianBlur stdDeviation="2" in="shadowOffsetOuter1" result="shadowBlurOuter1"></feGaussianBlur>
            <feColorMatrix values="0 0 0 0 0   0 0 0 0 0   0 0 0 0 0  0 0 0 0.1 0" type="matrix" in="shadowBlurOuter1" result="shadowMatrixOuter1"></feColorMatrix>
            <feMerge>
                <feMergeNode in="shadowMatrixOuter1"></feMergeNode>
                <feMergeNode in="SourceGraphic"></feMergeNode>
            </feMerge>
        </filter>
    </defs>
    <g id="01_Alani-Site" stroke="none" stroke-width="1" fill="none" fill-rule="evenodd">
        <g id="About-Us_v2" transform="translate(-986.000000, -3407.000000)">
            <g id="Job-1" filter="url(#filter-1)" transform="translate(970.000000, 3399.000000)">
                <g id="icon_careers_location" transform="translate(20.000000, 10.000000)">
                    <circle id="Oval-2" fill="#323B45" cx="40" cy="40" r="40"></circle>
                    <path d="M12.77,37 L12.77,44 L14.28,44 L14.28,39.51 L17.67,44 L19.11,44 L19.11,37 L17.61,37 L17.61,41.5 L14.21,37 L12.77,37 Z M21.05,42.5 C20.61,42.5 20.28,42.82 20.28,43.29 C20.28,43.75 20.61,44.09 21.05,44.09 C21.5,44.09 21.82,43.75 21.82,43.29 C21.82,42.82 21.5,42.5 21.05,42.5 Z M31.17,44 L30.62,42.64 L27.38,42.64 L26.83,44 L25.2,44 L28.24,37 L29.87,37 L32.86,44 L31.17,44 Z M27.9,41.37 L30.11,41.37 L29.01,38.65 L27.9,41.37 Z M40.68,38.56 C39.77,38.57 39.09,38.97 38.74,39.8 C38.48,39.02 37.83,38.56 36.92,38.56 C36.11,38.57 35.48,38.89 35.1,39.55 L35.1,38.62 L33.56,38.62 L33.56,44 L35.1,44 L35.1,41.34 C35.1,40.56 35.55,39.98 36.3,39.97 C36.93,39.97 37.33,40.38 37.33,41.07 L37.33,44 L38.86,44 L38.86,41.34 C38.86,40.56 39.31,39.98 40.05,39.97 C40.69,39.97 41.09,40.38 41.09,41.07 L41.09,44 L42.62,44 L42.62,40.62 C42.62,39.36 41.87,38.56 40.68,38.56 Z M46.26,38.57 C48.15,38.57 49.03,39.82 48.9,41.78 L45.04,41.78 C45.22,42.46 45.74,42.86 46.43,42.86 C46.94,42.86 47.42,42.66 47.79,42.29 L48.6,43.11 C48.06,43.71 47.27,44.06 46.3,44.06 C44.58,44.06 43.49,42.96 43.49,41.33 C43.49,39.67 44.62,38.57 46.26,38.57 Z M45.01,40.87 L47.46,40.87 C47.44,40.16 46.98,39.7 46.27,39.7 C45.59,39.7 45.13,40.16 45.01,40.87 Z M51.46,39.59 L51.46,38.62 L49.92,38.62 L49.92,44 L51.46,44 L51.46,41.41 C51.46,40.5 52.14,39.91 53.24,40.01 L53.24,38.56 C52.44,38.57 51.83,38.93 51.46,39.59 Z M54.85,36.32 C54.41,36.32 54.1,36.64 54.1,37.09 C54.1,37.53 54.41,37.86 54.85,37.86 C55.29,37.86 55.6,37.53 55.6,37.09 C55.6,36.64 55.29,36.32 54.85,36.32 Z M54.08,38.62 L54.08,44 L55.62,44 L55.62,38.62 L54.08,38.62 Z M60.69,40.45 L61.73,39.7 C61.25,38.98 60.43,38.57 59.4,38.57 C57.75,38.57 56.64,39.68 56.64,41.33 C56.64,42.96 57.75,44.06 59.38,44.06 C60.48,44.06 61.32,43.62 61.77,42.87 L60.71,42.15 C60.44,42.57 60.01,42.78 59.46,42.78 C58.71,42.78 58.18,42.19 58.18,41.32 C58.18,40.46 58.71,39.88 59.46,39.88 C59.99,39.87 60.4,40.09 60.69,40.45 Z M67.36,44 L65.85,44 L65.85,43.37 C65.49,43.82 64.91,44.07 64.16,44.07 C63.01,44.07 62.31,43.37 62.31,42.39 C62.31,41.38 63.04,40.78 64.36,40.77 L65.84,40.77 L65.84,40.67 C65.84,40.1 65.46,39.77 64.72,39.77 C64.24,39.77 63.68,39.93 63.12,40.24 L62.64,39.18 C63.44,38.78 64.13,38.56 65.07,38.56 C66.51,38.56 67.34,39.28 67.35,40.49 L67.36,44 Z M64.59,42.97 C65.24,42.97 65.75,42.62 65.84,42.16 L65.84,41.68 L64.63,41.68 C64.04,41.68 63.75,41.86 63.75,42.29 C63.75,42.7 64.07,42.97 64.59,42.97 Z" id="N.-America" fill="#FFFFFF"></path>
                </g>
            </g>
        </g>
    </g>
</svg>