<?xml version="1.0" encoding="UTF-8"?>
<svg width="32px" height="32px" viewBox="0 0 32 32" version="1.1" xmlns="http://www.w3.org/2000/svg" xmlns:xlink="http://www.w3.org/1999/xlink">
    <!-- Generator: Sketch 43.2 (39069) - http://www.bohemiancoding.com/sketch -->
    <title>icon_twitter_hover</title>
    <desc>Created with Sketch.</desc>
    <defs></defs>
    <g id="Symbols" stroke="none" stroke-width="1" fill="none" fill-rule="evenodd">
        <g id="Sidebar" transform="translate(-86.000000, -1187.000000)">
            <g id="Group">
                <g id="icon_twitter_hover" transform="translate(87.000000, 1188.000000)">
                    <path d="M15.0719172,30 L14.9280828,30 C6.68367633,30 0,23.3163237 0,15.0714967 L0,14.9285033 C0,6.6840969 6.68367633,0 14.9280828,0 L15.0719172,0 C23.3167442,0 30,6.6840969 30,14.9285033 L30,15.0714967 C30,23.3163237 23.3167442,30 15.0719172,30" id="Fill-1" stroke="#FF9900" fill="#FF9900"></path>
                    <path d="M23.8829272,11.2665492 C23.2984442,11.5264549 22.6706437,11.7015558 22.0117276,11.7796495 C22.684066,11.3763685 23.2020472,10.7381961 23.4442599,9.97739213 C22.8152391,10.3501678 22.1178863,10.6216656 21.3759957,10.7687015 C20.7811409,10.1347999 19.9337017,9.73884012 18.9965766,9.73884012 C17.1967597,9.73884012 15.7379927,11.1982171 15.7379927,12.997424 C15.7379927,13.2536691 15.7666678,13.5013727 15.8221876,13.7399248 C13.1145307,13.6044809 10.7131478,12.3073925 9.10551469,10.3349151 C8.82547538,10.8175101 8.66501712,11.3763685 8.66501712,11.9736637 C8.66501712,13.1041928 9.23973833,14.1017185 10.1140223,14.6855913 C9.58017829,14.6691184 9.07744975,14.5220825 8.63817239,14.2786496 L8.63817239,14.3189167 C8.63817239,15.8978748 9.7613802,17.2150968 11.2518727,17.5140494 C10.9791547,17.5884825 10.6899637,17.6293597 10.3934515,17.6293597 C10.1835746,17.6293597 9.97918856,17.6086161 9.78090364,17.5701793 C10.1945565,18.8648273 11.3982985,19.8062231 12.8241196,19.8336779 C11.7094533,20.7073518 10.3043758,21.2283836 8.77666678,21.2283836 C8.51432058,21.2283836 8.25502491,21.2125208 8,21.1826255 C9.442294,22.1069383 11.1548656,22.6462733 12.9955598,22.6462733 C18.9892553,22.6462733 22.2673626,17.681829 22.2673626,13.3750805 C22.2673626,13.2347558 22.2630919,13.093821 22.258211,12.9534963 C22.8933329,12.4946955 23.44487,11.9199742 23.8829272,11.2665492 Z" id="Page-1" fill="#FFFFFF"></path>
                </g>
            </g>
        </g>
    </g>
</svg>