<?xml version="1.0" encoding="UTF-8"?>
<svg width="102px" height="102px" viewBox="0 0 102 102" version="1.1" xmlns="http://www.w3.org/2000/svg" xmlns:xlink="http://www.w3.org/1999/xlink">
    <!-- Generator: Sketch 43.1 (39012) - http://www.bohemiancoding.com/sketch -->
    <title>icon_productportfolio</title>
    <desc>Created with Sketch.</desc>
    <defs></defs>
    <g id="01_Alani-Site" stroke="none" stroke-width="1" fill="none" fill-rule="evenodd">
        <g id="About-Us_v1" transform="translate(-1231.000000, -416.000000)" stroke="#131B23">
            <g id="icon_productportfolio" transform="translate(1232.000000, 417.000000)">
                <circle id="Oval-2" cx="50" cy="50" r="50"></circle>
                <path d="M68.1999973,31.4322721 C63.5102458,26.8348265 57.0861775,24 50,24 C43.3083094,24 37.2070608,26.527983 32.5991765,30.6810267" id="Oval-2" stroke-dasharray="2"></path>
                <path d="M24.1622477,47.0790477 C24.0550497,48.0379066 24,49.0125245 24,50 C24,61.2809327 31.1844323,70.8838513 41.2273836,74.4828427" id="Oval-2" stroke-dasharray="2"></path>
                <path d="M59.1489275,74.3446804 C68.9945535,70.6428413 76,61.1395255 76,50 C76,49.2368959 75.9671247,48.4814702 75.9027131,47.7350621" id="Oval-2" stroke-dasharray="2"></path>
                <circle id="Oval-3" cx="28" cy="39" r="9"></circle>
                <circle id="Oval-3" cx="50" cy="75" r="9"></circle>
                <circle id="Oval-3" cx="73" cy="39" r="9"></circle>
                <path d="M60.1325829,28.7427217 L40.8083351,48.0669694" id="Rectangle-2" transform="translate(50.470459, 38.404846) scale(1, -1) rotate(-315.000000) translate(-50.470459, -38.404846) "></path>
                <path d="M49.9661483,54.9168529 L74.1363908,59.2660084" id="Rectangle-2" transform="translate(62.051270, 57.091431) scale(1, -1) rotate(-315.000000) translate(-62.051270, -57.091431) "></path>
                <path d="M26.9980086,54.9085521 L51.1682511,59.2577077" id="Rectangle-2" transform="translate(39.083130, 57.083130) scale(-1, -1) rotate(-315.000000) translate(-39.083130, -57.083130) "></path>
            </g>
        </g>
    </g>
</svg>