<?xml version="1.0" encoding="UTF-8"?>
<svg width="32px" height="32px" viewBox="0 0 32 32" version="1.1" xmlns="http://www.w3.org/2000/svg" xmlns:xlink="http://www.w3.org/1999/xlink">
    <!-- Generator: Sketch 43.1 (39012) - http://www.bohemiancoding.com/sketch -->
    <title>icon_twitter</title>
    <desc>Created with Sketch.</desc>
    <defs></defs>
    <g id="Symbols" stroke="none" stroke-width="1" fill="none" fill-rule="evenodd">
        <g id="Sidebar" transform="translate(-86.000000, -1187.000000)" stroke="#131B23">
            <g id="Group">
                <g id="icon_twitter" transform="translate(87.000000, 1188.000000)">
                    <path d="M15.0719172,30 L14.9280828,30 C6.68367633,30 0,23.3163237 0,15.0714967 L0,14.9285033 C0,6.6840969 6.68367633,0 14.9280828,0 L15.0719172,0 C23.3167442,0 30,6.6840969 30,14.9285033 L30,15.0714967 C30,23.3163237 23.3167442,30 15.0719172,30" id="Fill-1"></path>
                    <path d="M23.6083497,10.8408833 C23.7363547,10.6164288 23.8414297,10.3780582 23.9206977,10.1290728 L24.3190759,8.87774373 L23.1893473,9.54725314 C22.6747539,9.85221585 22.1172759,10.0799784 21.5333551,10.2220705 C20.848078,9.59612942 19.9494891,9.23884012 18.9965766,9.23884012 C16.9208135,9.23884012 15.2379927,10.9218785 15.2379927,12.997424 C15.2379927,13.0617372 15.2395696,13.125735 15.2427177,13.1894004 C12.9783121,12.9188151 10.9268441,11.7781643 9.49309087,10.0190279 L9.03609823,9.4583231 L8.67305131,10.0839661 C8.34190047,10.6546421 8.16501712,11.3014785 8.16501712,11.9736637 C8.16501712,12.5750042 8.3072083,13.1525161 8.56671968,13.6674104 L8.13817239,13.4299238 L8.13817239,14.2786496 L8.13817239,14.3189167 C8.13817239,15.3354755 8.54473877,16.2684679 9.2128365,16.9507542 L9.04787246,16.9187766 L9.30462385,17.7223554 C9.65369776,18.8148847 10.4789735,19.6704698 11.517039,20.0764053 C10.6796192,20.5010052 9.74599728,20.7283836 8.77666678,20.7283836 C8.53764977,20.7283836 8.2978953,20.7141225 8.05821383,20.6860259 L5.90448909,20.4335558 L7.73021549,21.6035962 C9.29315359,22.6052253 11.1051616,23.1462733 12.9955598,23.1462733 C18.7311729,23.1462733 22.7673626,18.5679352 22.7673626,13.3750805 C22.7673626,13.3169483 22.7667604,13.259883 22.7654976,13.1974732 C23.3570159,12.7345073 23.87596,12.174856 24.298235,11.5449722 L25.2632191,10.10556 L23.6797694,10.8096827 C23.6560278,10.8202401 23.6322209,10.8306404 23.6083497,10.8408833 Z" id="Page-1"></path>
                </g>
            </g>
        </g>
    </g>
</svg>