<?xml version="1.0" encoding="UTF-8"?>
<svg width="32px" height="32px" viewBox="0 0 32 32" version="1.1" xmlns="http://www.w3.org/2000/svg" xmlns:xlink="http://www.w3.org/1999/xlink">
    <!-- Generator: Sketch 43.1 (39012) - http://www.bohemiancoding.com/sketch -->
    <title>icon_linkedin</title>
    <desc>Created with Sketch.</desc>
    <defs></defs>
    <g id="Symbols" stroke="none" stroke-width="1" fill="none" fill-rule="evenodd">
        <g id="Sidebar" transform="translate(-45.000000, -1187.000000)" stroke="#131B23">
            <g id="Group">
                <g id="icon_linkedin" transform="translate(46.000000, 1188.000000)">
                    <path d="M14.9280828,30.1361507 C6.68367633,30.1361507 0,23.4524744 0,15.2076473 L0,15.064654 C0,6.82024758 6.68367633,0.136150685 14.9280828,0.136150685 L15.0719172,0.136150685 C23.3167442,0.136150685 30,6.82024758 30,15.064654 L30,15.2076473 C30,23.4524744 23.3167442,30.1361507 15.0719172,30.1361507 L14.9280828,30.1361507 Z" id="Fill-1"></path>
                    <path d="M9.86083333,6 C10.8870833,6 11.7191667,6.82191781 11.7191667,7.83246575 C11.7191667,8.84424658 10.8870833,9.66616438 9.86083333,9.66616438 C8.83083333,9.66616438 8,8.84424658 8,7.83246575 C8,6.82191781 8.83083333,6 9.86083333,6 L9.86083333,6 Z M8.25458333,21.2284932 L11.465,21.2284932 L11.465,11.0568493 L8.25458333,11.0568493 L8.25458333,21.2284932 Z" id="Fill-4"></path>
                    <path d="M13,11.2527397 L16.0745833,11.2527397 L16.0745833,12.6430137 L16.1179167,12.6430137 C16.5458333,11.8424658 17.5925,11 19.1529167,11 C22.3983333,11 22.99875,13.1057534 22.99875,15.8452055 L22.99875,21.4243836 L19.7941667,21.4243836 L19.7941667,16.4789041 C19.7941667,15.2986301 19.7708333,13.7809589 18.1270833,13.7809589 C16.4579167,13.7809589 16.2033333,15.0656164 16.2033333,16.3917808 L16.2033333,21.4243836 L13,21.4243836 L13,11.2527397 Z" id="Fill-6"></path>
                </g>
            </g>
        </g>
    </g>
</svg>